<svg width="40" height="40" viewBox="0 0 40 40" fill="none" xmlns="http://www.w3.org/2000/svg">
<path d="M13.3333 35L13.3333 11.6667C13.3333 10.1167 13.3333 9.34174 13.5037 8.7059C13.966 6.98044 15.3138 5.63271 17.0392 5.17037C17.6751 5 18.4501 5 20 5C21.55 5 22.3249 5 22.9608 5.17037C24.6862 5.63271 26.034 6.98044 26.4963 8.7059C26.6667 9.34174 26.6667 10.1167 26.6667 11.6667L26.6667 22.5M26.6667 29.1667V35M11.3333 35H28.6667C31.4669 35 32.8671 35 33.9366 34.455C34.8774 33.9757 35.6423 33.2108 36.1217 32.27C36.6667 31.2004 36.6667 29.8003 36.6667 27V19.6667C36.6667 16.8664 36.6667 15.4663 36.1217 14.3967C35.6423 13.4559 34.8774 12.691 33.9366 12.2116C32.8671 11.6667 31.4669 11.6667 28.6667 11.6667L11.3333 11.6667C8.53307 11.6667 7.13294 11.6667 6.06338 12.2116C5.12257 12.691 4.35767 13.4559 3.8783 14.3967C3.33334 15.4663 3.33334 16.8664 3.33334 19.6667L3.33334 27C3.33334 29.8003 3.33334 31.2004 3.8783 32.27C4.35767 33.2108 5.12257 33.9757 6.06338 34.455C7.13294 35 8.53307 35 11.3333 35ZM21.3333 29.1667H29.5C29.9667 29.1667 30.2001 29.1667 30.3783 29.0758C30.5351 28.9959 30.6626 28.8685 30.7425 28.7117C30.8333 28.5334 30.8333 28.3 30.8333 27.8333V23.8333C30.8333 23.3666 30.8333 23.1333 30.7425 22.955C30.6626 22.7982 30.5351 22.6707 30.3783 22.5908C30.2001 22.5 29.9667 22.5 29.5 22.5H21.3333C20.8666 22.5 20.6333 22.5 20.455 22.5908C20.2982 22.6707 20.1707 22.7982 20.0908 22.955C20 23.1333 20 23.3666 20 23.8333V27.8333C20 28.3 20 28.5334 20.0908 28.7117C20.1707 28.8685 20.2982 28.9959 20.455 29.0758C20.6333 29.1667 20.8666 29.1667 21.3333 29.1667Z" stroke="#10E0D7" stroke-width="2" stroke-linecap="round" stroke-linejoin="round"/>
</svg>
