<svg width="40" height="40" viewBox="0 0 40 40" fill="none" xmlns="http://www.w3.org/2000/svg">
<path d="M9.61751 15.2524L2.1582 22.7118M9.61751 15.2524L4.12699 15.2524M9.61751 15.2524V20.743" stroke="#10E0D7" stroke-width="2" stroke-linecap="round" stroke-linejoin="round"/>
<path d="M12.526 28.1104L5.06671 35.5697M12.526 28.1104H7.0355M12.526 28.1104V33.6009" stroke="#10E0D7" stroke-width="2" stroke-linecap="round" stroke-linejoin="round"/>
<path d="M29.3571 29.7998L21.8978 37.2591M29.3571 29.7998H23.8666M29.3571 29.7998V35.2903" stroke="#10E0D7" stroke-width="2" stroke-linecap="round" stroke-linejoin="round"/>
<path d="M31.6678 4.63888C32.7064 3.56616 34.4224 3.55228 35.4782 4.60807C36.505 5.63492 36.5241 7.2938 35.5212 8.34404L32.53 11.4764C32.2955 11.722 32.1783 11.8447 32.106 11.9885C32.0421 12.1158 32.004 12.2545 31.9941 12.3966C31.9828 12.5571 32.021 12.7225 32.0973 13.0533L33.9574 21.1137C34.0358 21.4533 34.075 21.623 34.0623 21.7873C34.0511 21.9326 34.0105 22.0742 33.943 22.2034C33.8667 22.3493 33.7435 22.4725 33.4971 22.719L33.0979 23.1181C32.4454 23.7706 32.1191 24.0969 31.7852 24.1559C31.4936 24.2075 31.1937 24.1367 30.9559 23.9602C30.6837 23.758 30.5378 23.3203 30.246 22.4448L28.0824 15.9542L24.4811 19.5555C24.2662 19.7705 24.1587 19.878 24.0868 20.0045C24.0231 20.1167 23.9801 20.2393 23.9598 20.3667C23.9368 20.5104 23.9536 20.6615 23.9872 20.9637L24.185 22.7436C24.2185 23.0457 24.2353 23.1968 24.2124 23.3405C24.1921 23.4679 24.1491 23.5905 24.0854 23.7027C24.0135 23.8293 23.906 23.9367 23.691 24.1517L23.4784 24.3643C22.9691 24.8736 22.7145 25.1282 22.4316 25.2019C22.1834 25.2666 21.9202 25.2406 21.6896 25.1285C21.4266 25.0007 21.2268 24.701 20.8273 24.1018L19.139 21.5693C19.0676 21.4623 19.032 21.4087 18.9905 21.3602C18.9537 21.3171 18.9136 21.2769 18.8704 21.2401C18.8219 21.1987 18.7684 21.163 18.6613 21.0916L16.1288 19.4033C15.5296 19.0038 15.23 18.8041 15.1022 18.5411C14.9901 18.3104 14.964 18.0473 15.0287 17.7991C15.1024 17.5161 15.3571 17.2615 15.8663 16.7522L16.0789 16.5396C16.2939 16.3247 16.4014 16.2172 16.528 16.1453C16.6401 16.0816 16.7628 16.0385 16.8901 16.0182C17.0339 15.9953 17.1849 16.0121 17.4871 16.0457L19.267 16.2434C19.5691 16.277 19.7202 16.2938 19.8639 16.2709C19.9913 16.2506 20.114 16.2075 20.2261 16.1438C20.3527 16.0719 20.4601 15.9644 20.6751 15.7495L24.2764 12.1482L17.7858 9.98468C16.9103 9.69286 16.4726 9.54695 16.2705 9.2747C16.0939 9.03696 16.0231 8.73701 16.0747 8.44542C16.1338 8.1115 16.46 7.78524 17.1125 7.13272L17.5117 6.73358C17.7581 6.48717 17.8813 6.36397 18.0273 6.28765C18.1564 6.22011 18.298 6.17951 18.4434 6.16831C18.6076 6.15567 18.7774 6.19484 19.1169 6.2732L27.1468 8.12624C27.4804 8.20324 27.6473 8.24174 27.8083 8.23029C27.9639 8.21923 28.1151 8.17452 28.2517 8.09926C28.3931 8.0213 28.5122 7.89829 28.7504 7.65227L31.6678 4.63888Z" stroke="#10E0D7" stroke-width="2" stroke-linecap="round" stroke-linejoin="round"/>
</svg>
