<svg width="40" height="40" viewBox="0 0 40 40" fill="none" xmlns="http://www.w3.org/2000/svg">
<path d="M9.99998 33.4784H14.3505C14.9177 33.4784 15.4815 33.5459 16.0313 33.6809L20.6281 34.798C21.6256 35.041 22.6646 35.0646 23.6724 34.8688L28.7549 33.88C30.0976 33.6185 31.3326 32.9756 32.3005 32.034L35.8965 28.536C36.9234 27.5388 36.9234 25.9206 35.8965 24.9216C34.9719 24.0222 33.5079 23.921 32.4619 24.6837L28.271 27.7413C27.6708 28.18 26.9405 28.4162 26.1894 28.4162H22.1425L24.7184 28.4161C26.1703 28.4161 27.3464 27.2721 27.3464 25.8597V25.3484C27.3464 24.1757 26.5259 23.1531 25.3568 22.8696L21.381 21.9027C20.7339 21.7458 20.0713 21.6665 19.4052 21.6665C17.7972 21.6665 14.8865 22.9979 14.8865 22.9979L9.99998 25.0413M3.33331 24.3332L3.33331 33.9998C3.33331 34.9333 3.33331 35.4 3.51497 35.7565C3.67476 36.0701 3.92973 36.3251 4.24333 36.4848C4.59985 36.6665 5.06656 36.6665 5.99998 36.6665H7.33331C8.26673 36.6665 8.73344 36.6665 9.08996 36.4848C9.40357 36.3251 9.65854 36.0701 9.81832 35.7565C9.99998 35.4 9.99998 34.9333 9.99998 33.9998L9.99998 24.3332C9.99998 23.3998 9.99998 22.933 9.81832 22.5765C9.65854 22.2629 9.40357 22.008 9.08996 21.8482C8.73344 21.6665 8.26673 21.6665 7.33331 21.6665L5.99998 21.6665C5.06656 21.6665 4.59985 21.6665 4.24333 21.8482C3.92973 22.0079 3.67476 22.2629 3.51497 22.5765C3.33331 22.933 3.33331 23.3998 3.33331 24.3332Z" stroke="#10E0D7" stroke-width="2" stroke-linecap="round" stroke-linejoin="round"/>
<path d="M28.138 3.3335L29.4145 5.8864C29.7707 6.59899 29.9489 6.95529 30.1869 7.26404C30.3981 7.53801 30.6437 7.78363 30.9177 7.99481C31.2264 8.23281 31.5827 8.41096 32.2953 8.76725L34.8482 10.0437L32.2953 11.3202C31.5827 11.6764 31.2264 11.8546 30.9177 12.0926C30.6437 12.3038 30.3981 12.5494 30.1869 12.8234C29.9489 13.1321 29.7707 13.4884 29.4145 14.201L28.138 16.7539L26.8616 14.201C26.5053 13.4884 26.3271 13.1321 26.0891 12.8234C25.8779 12.5494 25.6323 12.3038 25.3583 12.0926C25.0496 11.8546 24.6933 11.6764 23.9807 11.3202L21.4278 10.0437L23.9807 8.76725C24.6933 8.41096 25.0496 8.23281 25.3583 7.99481C25.6323 7.78363 25.8779 7.53801 26.0891 7.26404C26.3271 6.95529 26.5053 6.59899 26.8616 5.88639L28.138 3.3335Z" stroke="#10E0D7" stroke-width="2" stroke-linecap="round" stroke-linejoin="round"/>
<path d="M13.0371 15.5924V11.4258M10.9538 13.5091H15.1205" stroke="#10E0D7" stroke-width="2" stroke-linecap="round" stroke-linejoin="round"/>
</svg>
