<svg width="256" height="256" viewBox="0 0 256 256" fill="none" xmlns="http://www.w3.org/2000/svg">
<g clip-path="url(#clip0_574_7466)">
<path d="M256 0H0V256H256V0Z" fill="#10E0D7"/>
<g clip-path="url(#clip1_574_7466)">
<path d="M126.163 140.781C132.246 140.781 137.177 135.871 137.177 129.814C137.177 123.756 132.246 118.846 126.163 118.846C120.08 118.846 115.148 123.756 115.148 129.814C115.148 135.871 120.08 140.781 126.163 140.781Z" fill="#1E1E1E"/>
<path fill-rule="evenodd" clip-rule="evenodd" d="M127.886 104.992C127.886 104.992 152.48 88.6308 152.48 69.5423C152.48 63.0333 149.889 56.7908 145.277 52.1883C140.665 47.5857 134.409 45 127.886 45C121.363 45 115.107 47.5857 110.495 52.1883C105.883 56.7908 103.292 63.0333 103.292 69.5423C103.292 88.6308 127.886 104.992 127.886 104.992ZM136.084 69.5423C136.084 74.0604 132.414 77.7231 127.886 77.7231C123.358 77.7231 119.688 74.0604 119.688 69.5423C119.688 65.0242 123.358 61.3615 127.886 61.3615C132.414 61.3615 136.084 65.0242 136.084 69.5423Z" fill="#1E1E1E"/>
<path d="M112.724 201.649C118.397 211.783 132.913 212.052 138.961 202.136L141.74 197.538L142.171 196.825L116.285 154.643L100.488 179.794L112.724 201.649Z" fill="white"/>
<path d="M148.662 135.406H179.665L149.784 184.734L134.3 159.328L148.662 135.406Z" fill="white"/>
<path d="M112.221 109.389C106.07 114.094 102.105 121.492 102.105 129.813C102.105 135.446 103.922 140.656 107.005 144.893L93.1856 166.818L51.2699 96.2471C44.9219 85.5595 52.6414 72.0391 65.0917 72.0391H91.0427C92.3016 86.7149 102.766 100.108 112.221 109.389Z" fill="white"/>
<path d="M143.606 109.336C153.037 100.068 163.45 86.7174 164.726 72.0898H192.479C202.88 72.0898 209.309 83.4079 203.967 92.3135L185.913 122.408H152.708C151.122 117.144 147.89 112.589 143.606 109.336Z" fill="white"/>
</g>
</g>
<defs>
<clipPath id="clip0_574_7466">
<rect width="256" height="256" fill="white"/>
</clipPath>
<clipPath id="clip1_574_7466">
<rect width="158" height="165" fill="white" transform="translate(49 45)"/>
</clipPath>
</defs>
</svg>
