<svg width="40" height="40" viewBox="0 0 40 40" fill="none" xmlns="http://www.w3.org/2000/svg">
<path d="M17.8167 9.97176L16.8627 9.67171L17.8167 9.97176ZM14.284 15.9003L14.8843 15.1004L14.284 15.9003ZM15.118 18.5516L16.0719 18.8516L15.118 18.5516ZM18.6506 21.2029L18.0503 20.403V20.4031L18.6506 21.2029ZM21.3493 21.2029L21.9496 20.4031L21.3493 21.2029ZM24.882 18.5516L23.9281 18.8516L24.882 18.5516ZM25.7159 15.9003L25.1157 15.1004L25.7159 15.9003ZM22.1833 9.97176L23.1372 9.67171L22.1833 9.97176ZM16.4548 29.7181L15.5887 29.2181H15.5887L16.4548 29.7181ZM13.5272 34.7889L14.3932 35.2889L13.5272 34.7889ZM3.05066 28.7403L2.18463 28.2403L3.05066 28.7403ZM5.97825 23.6695L6.84428 24.1695H6.84428L5.97825 23.6695ZM10.3882 34.5201L9.44192 34.8435H9.44192L10.3882 34.5201ZM9.98176 33.3312L10.928 33.0077L9.98176 33.3312ZM6.08575 31.0819L5.89275 30.1006H5.89275L6.08575 31.0819ZM4.85295 31.3243L5.04594 32.3055H5.04594L4.85295 31.3243ZM8.73671 30.989L9.23671 30.123L9.2367 30.123L8.73671 30.989ZM2.12947 31.3419L1.30926 31.9139L2.12947 31.3419ZM17.3001 28.2197L16.5012 27.6183L16.4532 27.682L16.4159 27.7526L17.3001 28.2197ZM23.0813 29.7181L23.9473 29.2181L23.0813 29.7181ZM26.0089 34.7889L26.8749 34.2889L26.0089 34.7889ZM36.4854 28.7403L37.3514 28.2403L36.4854 28.7403ZM33.5578 23.6695L32.6918 24.1695L33.5578 23.6695ZM29.1479 34.5201L30.0941 34.8435L29.1479 34.5201ZM29.5543 33.3312L28.6081 33.0077L29.5543 33.3312ZM33.4503 31.0819L33.6433 30.1006L33.4503 31.0819ZM34.6831 31.3243L34.4901 32.3055L34.6831 31.3243ZM37.4066 31.3419L38.2268 31.9139H38.2268L37.4066 31.3419ZM22.2287 28.206H21.2287V28.4534L21.3441 28.6722L22.2287 28.206ZM8.04574 20.912L7.14971 21.356L8.04574 20.912ZM17.4047 28.0807L17.5983 27.0997L17.4047 28.0807ZM22.2287 28.1477L22.0628 27.1616L22.2287 28.1477ZM31.8542 21.1096L30.9657 20.6508L31.8542 21.1096ZM7.46907 21.3311L6.71759 20.6714L7.46907 21.3311ZM7.66663 14.9998C7.66663 8.18832 13.1885 2.6665 20 2.6665V0.666504C12.0839 0.666504 5.66663 7.08376 5.66663 14.9998L7.66663 14.9998ZM20 2.6665C26.8115 2.6665 32.3333 8.18832 32.3333 14.9998H34.3333C34.3333 7.08376 27.916 0.666504 20 0.666504V2.6665ZM15.6334 12.6104C17.0823 12.6104 18.3376 11.6483 18.7706 10.2718L16.8627 9.67171C16.681 10.2494 16.1735 10.6104 15.6334 10.6104V12.6104ZM14.8843 15.1004C13.7956 14.2834 14.4425 12.6104 15.6334 12.6104V10.6104C12.3765 10.6104 11.1741 14.8166 13.6837 16.7001L14.8843 15.1004ZM16.0719 18.8516C16.5033 17.48 16.0363 15.9651 14.8843 15.1004L13.6837 16.7001C14.1409 17.0432 14.3473 17.669 14.164 18.2515L16.0719 18.8516ZM18.0503 20.4031C17.547 20.7808 16.9829 20.7264 16.5522 20.4031C16.1167 20.0762 15.8666 19.5043 16.0719 18.8516L14.164 18.2515C13.6821 19.7836 14.2987 21.2125 15.3516 22.0027C16.4092 22.7964 17.9551 22.9752 19.2509 22.0027L18.0503 20.4031ZM21.9496 20.4031C20.7893 19.5323 19.2106 19.5323 18.0503 20.403L19.2509 22.0027C19.6998 21.6657 20.3001 21.6657 20.7491 22.0027L21.9496 20.4031ZM23.9281 18.8516C24.1334 19.5043 23.8832 20.0762 23.4478 20.4031C23.017 20.7264 22.4529 20.7808 21.9496 20.4031L20.7491 22.0027C22.0448 22.9752 23.5907 22.7964 24.6483 22.0027C25.7012 21.2125 26.3178 19.7836 25.8359 18.2515L23.9281 18.8516ZM25.1157 15.1004C23.9636 15.9651 23.4966 17.48 23.9281 18.8516L25.8359 18.2515C25.6527 17.669 25.859 17.0432 26.3162 16.7001L25.1157 15.1004ZM24.3666 12.6104C25.5574 12.6104 26.2043 14.2834 25.1157 15.1004L26.3162 16.7001C28.8258 14.8166 27.6234 10.6104 24.3666 10.6104V12.6104ZM21.2293 10.2718C21.6623 11.6483 22.9176 12.6104 24.3666 12.6104V10.6104C23.8265 10.6104 23.3189 10.2494 23.1372 9.67171L21.2293 10.2718ZM23.1372 9.67171C22.1564 6.55366 17.8435 6.55366 16.8627 9.67171L18.7706 10.2718C19.1642 9.02029 20.8357 9.02029 21.2293 10.2718L23.1372 9.67171ZM15.5887 29.2181L12.6611 34.2889L14.3932 35.2889L17.3208 30.2181L15.5887 29.2181ZM3.91669 29.2403L6.84428 24.1695L5.11223 23.1695L2.18463 28.2403L3.91669 29.2403ZM11.3344 34.1966L10.928 33.0077L9.03551 33.6547L9.44192 34.8435L11.3344 34.1966ZM5.89275 30.1006L4.65996 30.3431L5.04594 32.3055L6.27874 32.0631L5.89275 30.1006ZM10.928 33.0077C10.706 32.3582 10.5109 31.7818 10.2923 31.3349C10.0615 30.8632 9.75201 30.4205 9.23671 30.123L8.23671 31.855C8.27504 31.8771 8.35757 31.9313 8.49571 32.2137C8.646 32.521 8.79661 32.9558 9.03551 33.6547L10.928 33.0077ZM6.27874 32.0631C7.00344 31.9205 7.45533 31.8335 7.79654 31.8101C8.11019 31.7885 8.19837 31.8329 8.23671 31.855L9.2367 30.123C8.7214 29.8254 8.18321 29.7787 7.65933 29.8148C7.16303 29.8489 6.56626 29.9682 5.89275 30.1006L6.27874 32.0631ZM2.18463 28.2403C1.7883 28.9268 1.43312 29.537 1.23339 30.0335C1.04306 30.5067 0.8406 31.242 1.30926 31.9139L2.94967 30.7698C3.10055 30.9861 2.9457 31.1359 3.08891 30.7799C3.22273 30.4472 3.48704 29.9845 3.91669 29.2403L2.18463 28.2403ZM4.65996 30.3431C3.82449 30.5075 3.30964 30.6061 2.9593 30.6235C2.58696 30.642 2.79326 30.5456 2.94967 30.7698L1.30926 31.9139C1.78345 32.5938 2.54961 32.6463 3.05861 32.621C3.58962 32.5946 4.27762 32.4566 5.04594 32.3055L4.65996 30.3431ZM12.6611 34.2889C12.2315 35.0331 11.9629 35.4933 11.7417 35.7756C11.5049 36.0776 11.5573 35.8686 11.82 35.8911L11.6494 37.8838C12.4656 37.9537 13.0012 37.4107 13.3158 37.0093C13.646 36.5881 13.9968 35.9754 14.3932 35.2889L12.6611 34.2889ZM9.44192 34.8435C9.69521 35.5845 9.91972 36.2493 10.1624 36.7224C10.3949 37.1758 10.8235 37.8131 11.6494 37.8838L11.82 35.8911C12.0924 35.9144 12.1121 36.1413 11.9419 35.8096C11.7818 35.4975 11.6098 35.0023 11.3344 34.1966L9.44192 34.8435ZM6.84428 24.1695C7.55024 22.9468 7.89119 22.366 8.22054 21.9909L6.71759 20.6714C6.22496 21.2325 5.76976 22.0307 5.11223 23.1695L6.84428 24.1695ZM17.3208 30.2182C17.6718 29.6102 17.9604 29.1106 18.1843 28.6868L16.4159 27.7526C16.2136 28.1356 15.9467 28.5982 15.5887 29.2181L17.3208 30.2182ZM22.2153 30.2181L25.1429 35.2889L26.8749 34.2889L23.9473 29.2181L22.2153 30.2181ZM37.3514 28.2403L34.4238 23.1695L32.6918 24.1695L35.6194 29.2403L37.3514 28.2403ZM30.0941 34.8435L30.5005 33.6547L28.6081 33.0077L28.2017 34.1966L30.0941 34.8435ZM33.2573 32.0631L34.4901 32.3055L34.8761 30.3431L33.6433 30.1006L33.2573 32.0631ZM30.5005 33.6547C30.7395 32.9558 30.8901 32.521 31.0404 32.2137C31.1785 31.9313 31.261 31.8771 31.2994 31.855L30.2994 30.123C29.784 30.4205 29.4745 30.8632 29.2438 31.3349C29.0252 31.7818 28.8301 32.3582 28.6081 33.0077L30.5005 33.6547ZM33.6433 30.1006C32.9698 29.9682 32.373 29.8489 31.8767 29.8148C31.3529 29.7787 30.8147 29.8254 30.2994 30.123L31.2994 31.855C31.3377 31.8329 31.4259 31.7885 31.7395 31.8101C32.0807 31.8335 32.5326 31.9205 33.2573 32.0631L33.6433 30.1006ZM35.6194 29.2403C36.049 29.9845 36.3133 30.4472 36.4472 30.7799C36.5904 31.1359 36.4355 30.9861 36.5864 30.7698L38.2268 31.9139C38.6955 31.242 38.493 30.5067 38.3027 30.0335C38.1029 29.537 37.7478 28.9268 37.3514 28.2403L35.6194 29.2403ZM34.4901 32.3055C35.2584 32.4566 35.9464 32.5946 36.4774 32.621C36.9865 32.6463 37.7526 32.5938 38.2268 31.9139L36.5864 30.7698C36.7428 30.5456 36.9491 30.642 36.5768 30.6235C36.2264 30.6061 35.7116 30.5075 34.8761 30.3431L34.4901 32.3055ZM25.1429 35.2889C25.5392 35.9754 25.8901 36.5881 26.2203 37.0093C26.5349 37.4107 27.0704 37.9537 27.8867 37.8838L27.716 35.8911C27.9788 35.8686 28.0311 36.0776 27.7944 35.7756C27.5732 35.4933 27.3046 35.0331 26.8749 34.2889L25.1429 35.2889ZM28.2017 34.1966C27.9262 35.0023 27.7542 35.4975 27.5941 35.8096C27.424 36.1413 27.4436 35.9144 27.716 35.8911L27.8867 37.8838C28.7126 37.8131 29.1411 37.1758 29.3737 36.7224C29.6163 36.2493 29.8409 35.5845 30.0941 34.8435L28.2017 34.1966ZM23.9473 29.2181C23.5852 28.591 23.3164 28.125 23.1134 27.7398L21.3441 28.6722C21.5691 29.0993 21.8604 29.6035 22.2153 30.2181L23.9473 29.2181ZM8.94177 20.468C8.12578 18.8212 7.66663 16.9656 7.66663 14.9998L5.66663 14.9998C5.66663 17.2804 6.2 19.4393 7.14971 21.356L8.94177 20.468ZM20 27.3332C19.1773 27.3332 18.3743 27.2528 17.5983 27.0997L17.2112 29.0618C18.114 29.24 19.0466 29.3332 20 29.3332V27.3332ZM17.5983 27.0997C13.7952 26.3494 10.6167 23.8481 8.94177 20.468L7.14971 21.356C9.09459 25.2809 12.7852 28.1887 17.2112 29.0618L17.5983 27.0997ZM18.099 28.8212L18.2036 28.6822L16.6058 27.4793L16.5012 27.6183L18.099 28.8212ZM22.0628 27.1616C21.3926 27.2744 20.7036 27.3332 20 27.3332V29.3332C20.8152 29.3332 21.6153 29.265 22.3947 29.1339L22.0628 27.1616ZM23.2287 28.206V28.1477H21.2287V28.206H23.2287ZM32.3333 14.9998C32.3333 17.0385 31.8394 18.9589 30.9657 20.6508L32.7427 21.5685C33.7595 19.5996 34.3333 17.3653 34.3333 14.9998H32.3333ZM30.9657 20.6508C29.2167 24.0373 25.9459 26.5081 22.0628 27.1616L22.3947 29.1339C26.9141 28.3733 30.7121 25.5003 32.7427 21.5685L30.9657 20.6508ZM34.4238 23.1695C33.662 21.85 33.1703 20.9772 32.5408 20.3826L31.1675 21.8366C31.5307 22.1796 31.8577 22.7248 32.6918 24.1695L34.4238 23.1695ZM8.22054 21.9909C8.26054 21.9453 8.33809 21.8832 8.49012 21.8078L7.60136 20.0161C7.32344 20.154 6.99425 20.3562 6.71759 20.6714L8.22054 21.9909Z" fill="#10E0D7"/>
</svg>
