<svg width="54" height="36" viewBox="0 0 54 36" fill="none" xmlns="http://www.w3.org/2000/svg">
<path d="M9.97198 31.1786L10.5598 30.3695H10.5598L9.97198 31.1786ZM8.43565 29.6422L7.62663 30.23H7.62663L8.43565 29.6422ZM19.6094 7.11594C20.1617 7.11594 20.6094 6.66822 20.6094 6.11594C20.6094 5.56365 20.1617 5.11594 19.6094 5.11594V7.11594ZM9.97198 7.44221L9.38419 6.63319V6.63319L9.97198 7.44221ZM8.43565 8.97854L7.62663 8.39075L7.62663 8.39075L8.43565 8.97854ZM32.0247 7.4376L31.4369 8.24662V8.24662L32.0247 7.4376ZM33.561 8.97394L34.37 8.38615V8.38615L33.561 8.97394ZM9.97211 7.4376L10.5599 8.24661L9.97211 7.4376ZM7.62676 8.38615C7.30213 8.83296 7.40118 9.45833 7.84799 9.78295C8.2948 10.1076 8.92017 10.0085 9.24479 9.56172L7.62676 8.38615ZM33.8228 13.8908C33.8506 14.4424 34.3203 14.867 34.8719 14.8391C35.4235 14.8113 35.8481 14.3416 35.8203 13.79L33.8228 13.8908ZM15.4088 33.4641C15.9608 33.483 16.4236 33.0509 16.4425 32.4989C16.4614 31.9469 16.0293 31.4842 15.4773 31.4652L15.4088 33.4641ZM6.10938 18.6159C6.10938 21.2048 6.10853 23.5546 6.27904 25.4855C6.44606 27.3769 6.78938 29.0776 7.62663 30.23L9.24466 29.0544C8.75564 28.3813 8.43583 27.1729 8.27128 25.3096C8.11022 23.4857 8.10938 21.235 8.10938 18.6159H6.10938ZM10.5598 30.3695C10.0551 30.0029 9.61132 29.5591 9.24466 29.0544L7.62663 30.23C8.11664 30.9044 8.70975 31.4976 9.38419 31.9876L10.5598 30.3695ZM19.6094 5.11594C17.0277 5.11594 15.0111 5.11456 13.4145 5.28754C11.7993 5.46254 10.4958 5.82556 9.38419 6.63319L10.5598 8.25122C11.2736 7.73258 12.1849 7.43247 13.6299 7.2759C15.0938 7.11731 16.9831 7.11594 19.6094 7.11594V5.11594ZM8.10938 18.6159C8.10938 15.9897 8.11075 14.1003 8.26934 12.6365C8.42591 11.1914 8.72602 10.2802 9.24466 9.56632L7.62663 8.39075C6.819 9.50236 6.45598 10.8058 6.28098 12.4211C6.108 14.0176 6.10938 16.0342 6.10938 18.6159H8.10938ZM9.38419 6.63319C8.70975 7.1232 8.11664 7.71631 7.62663 8.39075L9.24466 9.56632C9.61131 9.06167 10.0551 8.61788 10.5598 8.25122L9.38419 6.63319ZM22.3873 7.11133C25.0135 7.11133 26.9029 7.1127 28.3667 7.27129C29.8118 7.42786 30.723 7.72798 31.4369 8.24662L32.6125 6.62858C31.5009 5.82095 30.1974 5.45793 28.5821 5.28293C26.9856 5.10996 24.969 5.11133 22.3873 5.11133V7.11133ZM31.4369 8.24662C31.9415 8.61326 32.3853 9.05707 32.752 9.56172L34.37 8.38615C33.88 7.71172 33.2869 7.11859 32.6125 6.62858L31.4369 8.24662ZM22.3873 5.11133C19.794 5.11133 17.1062 5.11076 14.8369 5.27988C13.7011 5.36452 12.6418 5.49346 11.7336 5.69448C10.8446 5.89124 10.0067 6.1764 9.38432 6.62858L10.5599 8.24661C10.8502 8.03566 11.3696 7.82346 12.1658 7.64722C12.9429 7.47522 13.8968 7.35548 14.9856 7.27435C17.1655 7.11189 19.7726 7.11133 22.3873 7.11133V5.11133ZM9.24479 9.56172C9.61144 9.05707 10.0552 8.61326 10.5599 8.24661L9.38432 6.62858C8.70988 7.11859 8.11676 7.71171 7.62676 8.38615L9.24479 9.56172ZM35.8203 13.79C35.7052 11.5095 35.3894 9.78916 34.37 8.38615L32.752 9.56172C33.4112 10.469 33.7116 11.6861 33.8228 13.8908L35.8203 13.79ZM15.4773 31.4652C12.9003 31.377 11.5508 31.0896 10.5598 30.3695L9.38419 31.9876C10.9061 33.0933 12.8072 33.375 15.4088 33.4641L15.4773 31.4652Z" fill="#10E0D7"/>
<path d="M11.6679 18.6017C11.2774 18.9922 11.2774 19.6254 11.6679 20.0159C12.0584 20.4064 12.6916 20.4064 13.0821 20.0159L11.6679 18.6017ZM15.633 10.3856C15.0807 10.3881 14.635 10.8378 14.6375 11.3901C14.64 11.9424 15.0897 12.3881 15.6419 12.3856L15.633 10.3856ZM17.2735 11.3783L17.278 12.3783L17.2735 11.3783ZM20.3055 14.4103L19.3055 14.4058L20.3055 14.4103ZM19.2982 16.0419C19.2957 16.5941 19.7414 17.0438 20.2937 17.0463C20.846 17.0488 21.2957 16.6031 21.2982 16.0508L19.2982 16.0419ZM19.6768 11.7149L20.2888 10.9241L20.2888 10.9241L19.6768 11.7149ZM19.9689 12.007L20.7597 11.395L20.7597 11.395L19.9689 12.007ZM19.8175 11.8663L19.2041 11.0765L19.1547 11.1149L19.1104 11.1592L19.8175 11.8663ZM15.6419 12.3856L17.278 12.3783L17.2691 10.3783L15.633 10.3856L15.6419 12.3856ZM19.3055 14.4058L19.2982 16.0419L21.2982 16.0508L21.3055 14.4148L19.3055 14.4058ZM17.278 12.3783C17.9539 12.3753 18.3762 12.3749 18.6885 12.409C18.9807 12.4409 19.0474 12.4923 19.0648 12.5058L20.2888 10.9241C19.86 10.5922 19.3774 10.4724 18.9057 10.4209C18.454 10.3715 17.8979 10.3755 17.2691 10.3783L17.278 12.3783ZM21.3055 14.4148C21.3083 13.7859 21.3123 13.2298 21.263 12.7782C21.2114 12.3064 21.0916 11.8238 20.7597 11.395L19.178 12.619C19.1915 12.6364 19.2429 12.7031 19.2748 12.9953C19.3089 13.3076 19.3085 13.73 19.3055 14.4058L21.3055 14.4148ZM13.0821 20.0159L20.5246 12.5734L19.1104 11.1592L11.6679 18.6017L13.0821 20.0159ZM19.0648 12.5058C19.0863 12.5224 19.1066 12.5403 19.1257 12.5595L20.5422 11.1476C20.4627 11.0678 20.3781 10.9932 20.2888 10.9241L19.0648 12.5058ZM19.1257 12.5595C19.1444 12.5782 19.1618 12.5981 19.178 12.619L20.7597 11.395C20.6924 11.308 20.6197 11.2253 20.5422 11.1476L19.1257 12.5595ZM20.4309 12.6561L20.4473 12.6433L19.2206 11.0637L19.2041 11.0765L20.4309 12.6561Z" fill="#10E0D7"/>
<path d="M33.716 31.3038C33.3255 30.9133 32.6923 30.9133 32.3018 31.3038C31.9113 31.6943 31.9113 32.3275 32.3018 32.718L33.716 31.3038ZM35.2909 35.7072C35.6815 36.0977 36.3146 36.0977 36.7052 35.7072C37.0957 35.3167 37.0957 34.6835 36.7052 34.293L35.2909 35.7072ZM32.3018 32.718L35.2909 35.7072L36.7052 34.293L33.716 31.3038L32.3018 32.718ZM27.0304 31.7581C23.8682 31.7581 21.3047 29.1946 21.3047 26.0324H19.3047C19.3047 30.2992 22.7636 33.7581 27.0304 33.7581L27.0304 31.7581ZM32.7562 26.0324C32.7562 29.1946 30.1927 31.7581 27.0304 31.7581L27.0304 33.7581C31.2972 33.7581 34.7562 30.2992 34.7562 26.0324L32.7562 26.0324ZM27.0304 20.3066C30.1927 20.3066 32.7562 22.8701 32.7562 26.0324L34.7562 26.0324C34.7562 21.7656 31.2972 18.3066 27.0304 18.3066V20.3066ZM27.0304 18.3066C22.7636 18.3066 19.3047 21.7656 19.3047 26.0324H21.3047C21.3047 22.8701 23.8682 20.3066 27.0304 20.3066V18.3066Z" fill="#10E0D7"/>
</svg>
