<svg width="53" height="38" viewBox="0 0 53 38" fill="none" xmlns="http://www.w3.org/2000/svg">
<g clip-path="url(#clip0_2129_62647)">
<path d="M43.7018 16.8734L40.6024 13.774C40.2338 13.4053 39.6464 13.3748 39.2414 13.7031C37.8411 14.8384 35.8224 14.7316 34.5453 13.4547C33.2684 12.1777 33.1618 10.1589 34.2969 8.75866C34.6253 8.35368 34.5946 7.76617 34.2261 7.39752L31.1267 4.2982C30.7291 3.90064 30.0843 3.90056 29.6868 4.2982L10.2981 23.6868C9.90047 24.0844 9.90047 24.7291 10.2981 25.1267L13.3974 28.2259C13.3978 28.2263 13.3982 28.2267 13.3984 28.227C13.796 28.6246 14.4407 28.6246 14.8383 28.227C14.8753 28.1899 14.9089 28.1506 14.9391 28.1096C15.0086 28.0263 15.0816 27.9462 15.1566 27.8711C16.5275 26.5002 18.7579 26.5002 20.1288 27.8709C21.4996 29.2418 21.4996 31.4724 20.1287 32.8431C20.0425 32.9295 19.9495 33.0129 19.8526 33.0915C19.6285 33.2734 19.4921 33.5415 19.477 33.8294C19.462 34.1174 19.57 34.3984 19.774 34.6023L22.8731 37.7016C23.2708 38.0993 23.9155 38.0993 24.3131 37.7016L43.7015 18.3132C44.0994 17.9157 44.0993 17.271 43.7018 16.8734ZM30.6096 23.3211C30.6096 23.4009 30.5708 23.4756 30.5058 23.5217C30.4636 23.5517 30.4136 23.5673 30.3633 23.5673C30.3361 23.5673 30.3087 23.5626 30.2824 23.5535L27.1176 22.4503C27.0885 23.4366 27.0075 24.3463 26.8831 25.0709C26.8606 25.2023 26.8367 25.3257 26.8119 25.4414L28.4599 26.3572C28.5023 26.3808 28.5286 26.4254 28.5286 26.4741V27.0318C28.5286 27.075 28.5076 27.1155 28.4724 27.1407C28.4496 27.1569 28.4224 27.1654 28.395 27.1654C28.3801 27.1654 28.3654 27.163 28.3511 27.158L26.4249 26.4865C26.3364 26.5979 26.2151 26.6914 26.0536 26.6914C25.8922 26.6914 25.7708 26.5979 25.6823 26.4865L23.7561 27.158C23.7152 27.1723 23.6699 27.1658 23.6347 27.1407C23.5994 27.1155 23.5785 27.0749 23.5785 27.0318V26.4741C23.5785 26.4254 23.6048 26.3806 23.6472 26.3572L25.2952 25.4414C25.2703 25.3257 25.2465 25.2023 25.224 25.0709C25.0996 24.3463 25.0187 23.4366 24.9895 22.4503L21.8247 23.5535C21.7494 23.5797 21.6661 23.568 21.6012 23.5217C21.5362 23.4756 21.4976 23.4009 21.4976 23.3211V22.2946C21.4976 22.2052 21.546 22.1228 21.6241 22.0795L22.339 21.6823V21.359C22.339 21.1415 22.5153 20.9653 22.7327 20.9653C22.9134 20.9653 23.0652 21.0871 23.1116 21.2529L23.7131 20.9187V20.6208C23.7131 20.4033 23.8894 20.2271 24.1068 20.2271C24.2795 20.2271 24.4259 20.3385 24.4791 20.4932L25.0128 20.1966C25.0523 19.4325 25.1241 18.7316 25.224 18.1498C25.3033 17.6884 25.3969 17.3226 25.5025 17.0627C25.556 16.9307 25.719 16.5292 26.0537 16.5292C26.3884 16.5292 26.5514 16.9308 26.605 17.0627C26.7106 17.3225 26.8041 17.6883 26.8834 18.1498C26.9833 18.7315 27.0551 19.4325 27.0946 20.1966L27.6282 20.4932C27.6812 20.3384 27.8276 20.2271 28.0005 20.2271C28.218 20.2271 28.3942 20.4033 28.3942 20.6208V20.9187L28.9956 21.2529C29.042 21.0871 29.194 20.9653 29.3747 20.9653C29.5922 20.9653 29.7682 21.1416 29.7682 21.359V21.6823L30.4833 22.0795C30.5612 22.1228 30.6098 22.2052 30.6098 22.2946V23.3211H30.6096ZM37.2861 20.6077C36.8716 21.0223 36.1991 21.0223 35.7847 20.6077L27.3923 12.2154C26.9778 11.8008 26.9778 11.1286 27.3923 10.714C27.8068 10.2994 28.4792 10.2994 28.8937 10.714L37.2864 19.1065C37.7008 19.5211 37.7008 20.1933 37.2861 20.6077Z" fill="#10E0D7"/>
</g>
<defs>
<clipPath id="clip0_2129_62647">
<rect width="34" height="34" fill="white" transform="translate(10 4)"/>
</clipPath>
</defs>
</svg>
