<svg width="34" height="34" viewBox="0 0 34 34" fill="none" xmlns="http://www.w3.org/2000/svg">
<g clip-path="url(#clip0_2129_62660)">
<path d="M33.7018 12.8734L30.6024 9.77405C30.2338 9.40532 29.6464 9.37478 29.2414 9.70308C27.8411 10.8384 25.8224 10.7316 24.5453 9.45465C23.2684 8.17771 23.1618 6.15892 24.2969 4.75866C24.6253 4.35368 24.5946 3.76617 24.2261 3.39752L21.1267 0.298195C20.7291 -0.0993576 20.0843 -0.0994393 19.6868 0.298195L0.298104 19.6868C-0.0995307 20.0844 -0.0995307 20.7291 0.298104 21.1267L3.39743 24.2259C3.39776 24.2263 3.39817 24.2267 3.39841 24.227C3.79596 24.6246 4.44072 24.6246 4.83828 24.227C4.87527 24.1899 4.90892 24.1506 4.93913 24.1096C5.00863 24.0263 5.08156 23.9462 5.15661 23.8711C6.52755 22.5002 8.75794 22.5002 10.1288 23.8709C11.4996 25.2418 11.4996 27.4724 10.1287 28.8431C10.0425 28.9295 9.94954 29.0129 9.8526 29.0915C9.62851 29.2734 9.49213 29.5415 9.47702 29.8294C9.46199 30.1174 9.56995 30.3984 9.77396 30.6023L12.8731 33.7016C13.2708 34.0993 13.9155 34.0993 14.3131 33.7016L33.7015 14.3132C34.0994 13.9157 34.0993 13.271 33.7018 12.8734ZM20.6096 19.3211C20.6096 19.4009 20.5708 19.4756 20.5058 19.5217C20.4636 19.5517 20.4136 19.5673 20.3633 19.5673C20.3361 19.5673 20.3087 19.5626 20.2824 19.5535L17.1176 18.4503C17.0885 19.4366 17.0075 20.3463 16.8831 21.0709C16.8606 21.2023 16.8367 21.3257 16.8119 21.4414L18.4599 22.3572C18.5023 22.3808 18.5286 22.4254 18.5286 22.4741V23.0318C18.5286 23.075 18.5076 23.1155 18.4724 23.1407C18.4496 23.1569 18.4224 23.1654 18.395 23.1654C18.3801 23.1654 18.3654 23.163 18.3511 23.158L16.4249 22.4865C16.3364 22.5979 16.2151 22.6914 16.0536 22.6914C15.8922 22.6914 15.7708 22.5979 15.6823 22.4865L13.7561 23.158C13.7152 23.1723 13.6699 23.1658 13.6347 23.1407C13.5994 23.1155 13.5785 23.0749 13.5785 23.0318V22.4741C13.5785 22.4254 13.6048 22.3806 13.6472 22.3572L15.2952 21.4414C15.2703 21.3257 15.2465 21.2023 15.224 21.0709C15.0996 20.3463 15.0187 19.4366 14.9895 18.4503L11.8247 19.5535C11.7494 19.5797 11.6661 19.568 11.6012 19.5217C11.5362 19.4756 11.4976 19.4009 11.4976 19.3211V18.2946C11.4976 18.2052 11.546 18.1228 11.6241 18.0795L12.339 17.6823V17.359C12.339 17.1415 12.5153 16.9653 12.7327 16.9653C12.9134 16.9653 13.0652 17.0871 13.1116 17.2529L13.7131 16.9187V16.6208C13.7131 16.4033 13.8894 16.2271 14.1068 16.2271C14.2795 16.2271 14.4259 16.3385 14.4791 16.4932L15.0128 16.1966C15.0523 15.4325 15.1241 14.7316 15.224 14.1498C15.3033 13.6884 15.3969 13.3226 15.5025 13.0627C15.556 12.9307 15.719 12.5292 16.0537 12.5292C16.3884 12.5292 16.5514 12.9308 16.605 13.0627C16.7106 13.3225 16.8041 13.6883 16.8834 14.1498C16.9833 14.7315 17.0551 15.4325 17.0946 16.1966L17.6282 16.4932C17.6812 16.3384 17.8276 16.2271 18.0005 16.2271C18.218 16.2271 18.3942 16.4033 18.3942 16.6208V16.9187L18.9956 17.2529C19.042 17.0871 19.194 16.9653 19.3747 16.9653C19.5922 16.9653 19.7682 17.1416 19.7682 17.359V17.6823L20.4833 18.0795C20.5612 18.1228 20.6098 18.2052 20.6098 18.2946V19.3211H20.6096ZM27.2861 16.6077C26.8716 17.0223 26.1991 17.0223 25.7847 16.6077L17.3923 8.21544C16.9778 7.80082 16.9778 7.12862 17.3923 6.714C17.8068 6.29938 18.4792 6.29938 18.8937 6.714L27.2864 15.1065C27.7008 15.5211 27.7008 16.1933 27.2861 16.6077Z" fill="#10E0D7"/>
</g>
<defs>
<clipPath id="clip0_2129_62660">
<rect width="34" height="34" fill="white"/>
</clipPath>
</defs>
</svg>
