<svg width="40" height="40" viewBox="0 0 40 40" fill="none" xmlns="http://www.w3.org/2000/svg">
<path d="M25.6666 10.0002C25.6666 13.1298 23.1296 15.6668 20 15.6668V17.6668C24.2342 17.6668 27.6666 14.2343 27.6666 10.0002H25.6666ZM20 15.6668C16.8704 15.6668 14.3333 13.1298 14.3333 10.0002H12.3333C12.3333 14.2343 15.7658 17.6668 20 17.6668V15.6668ZM14.3333 10.0002C14.3333 6.87055 16.8704 4.3335 20 4.3335V2.3335C15.7658 2.3335 12.3333 5.76598 12.3333 10.0002H14.3333ZM20 4.3335C23.1296 4.3335 25.6666 6.87055 25.6666 10.0002H27.6666C27.6666 5.76598 24.2342 2.3335 20 2.3335V4.3335ZM15 22.6668L25 22.6668V20.6668L15 20.6668V22.6668ZM25 34.0002H15V36.0002H25V34.0002ZM15 34.0002C11.8704 34.0002 9.33331 31.4631 9.33331 28.3335H7.33331C7.33331 32.5677 10.7658 36.0002 15 36.0002V34.0002ZM30.6666 28.3335C30.6666 31.4631 28.1296 34.0002 25 34.0002V36.0002C29.2342 36.0002 32.6666 32.5677 32.6666 28.3335H30.6666ZM25 22.6668C28.1296 22.6668 30.6666 25.2039 30.6666 28.3335H32.6666C32.6666 24.0993 29.2342 20.6668 25 20.6668V22.6668ZM15 20.6668C10.7658 20.6668 7.33331 24.0993 7.33331 28.3335H9.33331C9.33331 25.2039 11.8704 22.6668 15 22.6668V20.6668Z" fill="#10E0D7"/>
</svg>
