<svg width="106" height="28" viewBox="0 0 106 28" fill="none" xmlns="http://www.w3.org/2000/svg">
<path d="M18.4991 13.4856V24.4649C18.14 24.8764 17.6076 25.3627 16.9018 25.9238C16.196 26.4725 15.2612 26.9588 14.0972 27.3828C12.9457 27.7943 11.5155 28 9.80677 28C8.33327 28 6.9898 27.7631 5.77634 27.2892C4.57526 26.8154 3.54133 26.0984 2.67457 25.1383C1.8202 24.1657 1.15774 22.9561 0.687215 21.5097C0.22907 20.0632 0 18.3549 0 16.3848V11.6339C0 9.67624 0.210499 7.97417 0.631496 6.52772C1.06488 5.0688 1.69018 3.85304 2.50741 2.88043C3.33703 1.90782 4.3338 1.18459 5.49773 0.710755C6.66167 0.236918 7.98657 0 9.47245 0C11.4412 0 13.0633 0.342908 14.3387 1.02872C15.6264 1.70207 16.6046 2.69962 17.2733 4.02138C17.9543 5.34313 18.3629 6.96415 18.4991 8.88444H13.67C13.571 7.73725 13.3667 6.82075 13.0571 6.13494C12.7476 5.44912 12.308 4.95035 11.7384 4.63861C11.1812 4.32688 10.4568 4.17101 9.56532 4.17101C8.77285 4.17101 8.08563 4.31441 7.50366 4.6012C6.93407 4.87553 6.45736 5.31196 6.07351 5.91049C5.70204 6.50902 5.42344 7.27589 5.2377 8.21109C5.06435 9.14629 4.97767 10.2748 4.97767 11.5965V16.3848C4.97767 17.7065 5.08292 18.8412 5.29342 19.7889C5.5163 20.7366 5.83825 21.5097 6.25925 22.1082C6.68024 22.7067 7.20649 23.1432 7.83799 23.4175C8.46948 23.6918 9.20623 23.829 10.0482 23.829C10.7912 23.829 11.3855 23.7542 11.8313 23.6045C12.277 23.4549 12.6299 23.2866 12.89 23.0995C13.1624 22.9 13.3791 22.7504 13.54 22.6506V17.3387H9.41673V13.4856H18.4991Z" fill="white"/>
<path d="M37.2494 20.1817C37.2494 21.8775 36.9151 23.3115 36.2464 24.4836C35.5901 25.6433 34.6862 26.5224 33.5347 27.1209C32.3955 27.707 31.0954 28 29.6343 28C28.1732 28 26.8606 27.707 25.6967 27.1209C24.5451 26.5224 23.6351 25.6433 22.9664 24.4836C22.2978 23.3115 21.9634 21.8775 21.9634 20.1817C21.9634 19.0345 22.1492 17.9996 22.5206 17.0768C22.9045 16.1541 23.4369 15.3623 24.118 14.7014C24.799 14.0281 25.6038 13.5106 26.5325 13.149C27.4736 12.7874 28.4951 12.6065 29.5971 12.6065C31.0706 12.6065 32.3831 12.9245 33.5347 13.5605C34.6986 14.1839 35.6087 15.063 36.265 16.1977C36.9212 17.32 37.2494 18.648 37.2494 20.1817ZM32.476 19.8637C32.476 19.0033 32.3584 18.2614 32.1231 17.6379C31.8878 17.002 31.5535 16.5157 31.1201 16.179C30.6868 15.8299 30.1791 15.6553 29.5971 15.6553C29.0028 15.6553 28.4951 15.8299 28.0741 16.179C27.6531 16.5157 27.325 17.002 27.0897 17.6379C26.8544 18.2614 26.7368 19.0033 26.7368 19.8637C26.7368 20.7241 26.8483 21.4598 27.0711 22.0708C27.3064 22.6818 27.6407 23.1556 28.0741 23.4923C28.5075 23.829 29.0275 23.9973 29.6343 23.9973C30.241 23.9973 30.7549 23.829 31.1759 23.4923C31.5969 23.1556 31.9188 22.6818 32.1417 22.0708C32.3646 21.4598 32.476 20.7241 32.476 19.8637ZM36.785 7.59385C36.785 8.97796 36.4755 10.2 35.8564 11.2599C35.2496 12.3198 34.4076 13.149 33.3304 13.7475C32.2655 14.346 31.0335 14.6453 29.6343 14.6453C28.2351 14.6453 26.9907 14.346 25.901 13.7475C24.8114 13.149 23.957 12.3198 23.3379 11.2599C22.7311 10.2 22.4278 8.97796 22.4278 7.59385C22.4278 5.96037 22.7373 4.5825 23.3564 3.46025C23.9756 2.32554 24.8237 1.46515 25.901 0.879092C26.9783 0.293031 28.2165 0 29.6157 0C31.0149 0 32.2531 0.293031 33.3304 0.879092C34.42 1.46515 35.2682 2.32554 35.8749 3.46025C36.4817 4.5825 36.785 5.96037 36.785 7.59385ZM32.0117 7.8183C32.0117 7.05767 31.9188 6.39679 31.7331 5.83567C31.5597 5.26208 31.2935 4.81942 30.9344 4.50768C30.5877 4.18348 30.1481 4.02138 29.6157 4.02138C29.108 4.02138 28.6746 4.17101 28.3156 4.47027C27.9565 4.76954 27.6779 5.20597 27.4797 5.77956C27.294 6.35315 27.2012 7.03273 27.2012 7.8183C27.2012 8.57894 27.294 9.24605 27.4797 9.81964C27.6655 10.3932 27.9379 10.8421 28.297 11.1663C28.6684 11.4905 29.1142 11.6526 29.6343 11.6526C30.1543 11.6526 30.5877 11.4905 30.9344 11.1663C31.2935 10.8421 31.5597 10.3932 31.7331 9.81964C31.9188 9.24605 32.0117 8.57894 32.0117 7.8183Z" fill="white"/>
<path d="M46.8058 22.5945L51.1148 0.392786H53.8822L54.2723 4.86306L49.5918 27.6259H46.6386L46.8058 22.5945ZM44.6884 0.392786L48.1431 22.5571L47.9202 27.6259H44.7255L39.7479 0.392786H44.6884ZM58.2284 22.4636L61.6645 0.392786H66.5865L61.6274 27.6259H58.4327L58.2284 22.4636ZM55.2567 0.392786L59.5843 22.688L59.6772 27.6259H56.7425L52.1363 4.82565L52.5264 0.392786H55.2567Z" fill="#10E0D7"/>
<path d="M78.1674 4.69472L71.9824 27.6259H66.7447L75.2699 0.392786H78.5388L78.1674 4.69472ZM83.0522 27.6259L76.8672 4.69472L76.44 0.392786H79.7461L88.3084 27.6259H83.0522ZM83.2193 17.4883V21.6593H70.8123V17.4883H83.2193Z" fill="#10E0D7"/>
<path d="M91.6799 0.392786L96.119 12.9806L100.539 0.392786H106L98.6264 17.6754V27.6259H93.6115V17.6754L86.2379 0.392786H91.6799Z" fill="#10E0D7"/>
</svg>
