<svg width="22" height="20" viewBox="0 0 22 20" fill="none" xmlns="http://www.w3.org/2000/svg">
<path d="M3.06107 18.5484L3.3006 18.2187L3.3006 18.2187L3.06107 18.5484ZM1.95491 17.4422L1.62524 17.6818L1.62524 17.6818L1.95491 17.4422ZM21 9.50332L20.5925 9.50332V9.50332H21ZM20.0451 17.4422L19.7154 17.2027L19.7154 17.2027L20.0451 17.4422ZM18.9389 18.5484L18.6994 18.2187L18.6994 18.2187L18.9389 18.5484ZM10 0.910821C10.2251 0.910821 10.4075 0.728376 10.4075 0.503318C10.4075 0.27826 10.2251 0.095815 10 0.095815V0.910821ZM3.06107 1.45823L2.82155 1.12856L2.82155 1.12856L3.06107 1.45823ZM1.95491 2.56439L1.62524 2.32487L1.62524 2.32487L1.95491 2.56439ZM18.939 1.45491L18.6995 1.78459L18.6995 1.78459L18.939 1.45491ZM20.0452 2.56108L20.3749 2.32155L20.3749 2.32155L20.0452 2.56108ZM3.06117 1.45491L3.30069 1.78459L3.30069 1.78459L3.06117 1.45491ZM1.62533 2.32155C1.49304 2.50363 1.53341 2.75847 1.71548 2.89075C1.89756 3.02304 2.1524 2.98268 2.28468 2.8006L1.62533 2.32155ZM20.0452 17.4389L20.3749 17.6785L20.3749 17.6785L20.0452 17.4389ZM18.6995 18.2154C18.5174 18.3477 18.4771 18.6025 18.6093 18.7846C18.7416 18.9667 18.9965 19.007 19.1785 18.8748L18.6995 18.2154ZM10 19.0958C8.11606 19.0958 6.73583 19.0953 5.66115 18.9788C4.5941 18.8632 3.87672 18.6373 3.3006 18.2187L2.82155 18.8781C3.55976 19.4144 4.43697 19.666 5.57337 19.7891C6.70214 19.9114 8.13421 19.9108 10 19.9108V19.0958ZM0.592497 9.50332C0.592497 11.372 0.592152 13.0484 0.713441 14.4219C0.83331 15.7793 1.07683 16.9269 1.62524 17.6818L2.28459 17.2027C1.87808 16.6432 1.64415 15.6962 1.52529 14.3502C1.40785 13.0203 1.4075 11.3843 1.4075 9.50332H0.592497ZM3.3006 18.2187C2.91072 17.9355 2.56786 17.5926 2.28459 17.2027L1.62524 17.6818C1.95877 18.1408 2.36248 18.5445 2.82155 18.8781L3.3006 18.2187ZM20.5925 9.50332C20.5925 11.3843 20.5922 13.0203 20.4747 14.3502C20.3559 15.6962 20.1219 16.6432 19.7154 17.2027L20.3748 17.6818C20.9232 16.9269 21.1667 15.7793 21.2866 14.4219C21.4078 13.0484 21.4075 11.372 21.4075 9.50332H20.5925ZM10 19.9108C11.8705 19.9108 13.7931 19.9111 15.413 19.7903C16.2235 19.7299 16.9697 19.6385 17.6031 19.4983C18.2287 19.3599 18.7822 19.166 19.1785 18.8781L18.6994 18.2187C18.4385 18.4083 18.0148 18.5725 17.427 18.7026C16.847 18.831 16.1437 18.9186 15.3525 18.9776C13.7689 19.0956 11.8792 19.0958 10 19.0958V19.9108ZM19.7154 17.2027C19.4321 17.5926 19.0893 17.9355 18.6994 18.2187L19.1785 18.8781C19.6375 18.5445 20.0412 18.1408 20.3748 17.6818L19.7154 17.2027ZM10 0.095815C8.13421 0.095815 6.70214 0.0952557 5.57337 0.21755C4.43697 0.340671 3.55976 0.592217 2.82155 1.12856L3.3006 1.78791C3.87672 1.36933 4.5941 1.14342 5.66115 1.02781C6.73583 0.91138 8.11606 0.910821 10 0.910821V0.095815ZM1.4075 9.50332C1.4075 7.61937 1.40806 6.23915 1.5245 5.16447C1.6401 4.09742 1.86602 3.38004 2.28459 2.80392L1.62524 2.32487C1.0889 3.06308 0.837353 3.94029 0.714232 5.07668C0.591938 6.20545 0.592497 7.63753 0.592497 9.50332H1.4075ZM2.82155 1.12856C2.36248 1.46209 1.95877 1.8658 1.62524 2.32487L2.28459 2.80392C2.56786 2.41404 2.91072 2.07117 3.3006 1.78791L2.82155 1.12856ZM12.0001 0.907503C13.884 0.907503 15.2643 0.908063 16.3389 1.0245C17.406 1.1401 18.1234 1.36602 18.6995 1.78459L19.1785 1.12524C18.4403 0.588899 17.5631 0.337353 16.4267 0.214233C15.298 0.091938 13.8659 0.0924972 12.0001 0.0924971L12.0001 0.907503ZM21.4075 9.50332C21.4075 7.63752 21.4081 6.20464 21.2858 5.07507C21.1627 3.93795 20.9112 3.05984 20.3749 2.32155L19.7155 2.8006C20.134 3.37664 20.3599 4.09478 20.4755 5.16277C20.592 6.2383 20.5925 7.61938 20.5925 9.50332L21.4075 9.50332ZM18.6995 1.78459C19.0894 2.06785 19.4322 2.41072 19.7155 2.8006L20.3749 2.32155C20.0413 1.86249 19.6376 1.45877 19.1785 1.12524L18.6995 1.78459ZM12.0001 0.0924971C10.1296 0.0924969 8.207 0.0922668 6.58707 0.212988C5.77662 0.273385 5.03038 0.364784 4.39698 0.504981C3.77141 0.643446 3.21787 0.837358 2.82164 1.12524L3.30069 1.78459C3.56162 1.59501 3.98532 1.43083 4.57312 1.30073C5.15309 1.17235 5.85637 1.08471 6.64764 1.02574C8.23116 0.907733 10.1208 0.907503 12.0001 0.907503L12.0001 0.0924971ZM2.28468 2.8006C2.56795 2.41072 2.91081 2.06785 3.30069 1.78459L2.82164 1.12524C2.36257 1.45877 1.95886 1.86249 1.62533 2.32155L2.28468 2.8006ZM20.5925 9.50332C20.5925 11.3844 20.5922 13.0195 20.4748 14.3485C20.3559 15.6936 20.122 16.6399 19.7155 17.1994L20.3749 17.6785C20.9232 16.9237 21.1668 15.7769 21.2866 14.4203C21.4079 13.0476 21.4075 11.372 21.4075 9.50332L20.5925 9.50332ZM19.1785 18.8748C19.6376 18.5412 20.0413 18.1375 20.3749 17.6785L19.7155 17.1994C19.4322 17.5893 19.0894 17.9321 18.6995 18.2154L19.1785 18.8748Z" fill="#10E0D7"/>
<path d="M7.21191 13.2138C7.05277 13.3729 7.05277 13.631 7.21191 13.7901C7.37105 13.9492 7.62907 13.9492 7.78821 13.7901L7.21191 13.2138ZM10.3774 6.10211C10.1524 6.10311 9.97076 6.28637 9.97176 6.51143C9.97277 6.73648 10.156 6.91811 10.3811 6.91711L10.3774 6.10211ZM11.8231 6.50317L11.8249 6.91066L11.8231 6.50317ZM14.4988 9.17892L14.0913 9.17711L14.0913 9.17711L14.4988 9.17892ZM14.0849 10.6209C14.0839 10.846 14.2655 11.0292 14.4906 11.0303C14.7156 11.0313 14.8989 10.8496 14.8999 10.6246L14.0849 10.6209ZM13.944 6.80022L14.1934 6.47796L14.1934 6.47796L13.944 6.80022ZM14.2018 7.05798L14.5241 6.80858L14.5241 6.80858L14.2018 7.05798ZM14.0682 6.93382L13.8182 6.61197L13.7981 6.62763L13.78 6.64568L14.0682 6.93382ZM10.3811 6.91711L11.8249 6.91066L11.8213 6.09567L10.3774 6.10211L10.3811 6.91711ZM14.0913 9.17711L14.0849 10.6209L14.8999 10.6246L14.9063 9.18074L14.0913 9.17711ZM11.8249 6.91066C12.4102 6.90805 12.8147 6.90687 13.1234 6.94058C13.4239 6.97339 13.5816 7.03498 13.6946 7.12249L14.1934 6.47796C13.9127 6.2607 13.5856 6.17119 13.2119 6.13039C12.8464 6.09048 12.3874 6.09314 11.8213 6.09567L11.8249 6.91066ZM14.9063 9.18074C14.9089 8.61461 14.9115 8.15558 14.8716 7.79011C14.8308 7.41644 14.7413 7.08931 14.5241 6.80858L13.8795 7.30738C13.967 7.42046 14.0286 7.57809 14.0614 7.87858C14.0951 8.18728 14.094 8.59181 14.0913 9.17711L14.9063 9.18074ZM7.78821 13.7901L14.3563 7.22197L13.78 6.64568L7.21191 13.2138L7.78821 13.7901ZM13.6946 7.12249C13.7297 7.14961 13.7629 7.17892 13.7941 7.21023L14.3713 6.63486C14.3155 6.57886 14.2561 6.52644 14.1934 6.47796L13.6946 7.12249ZM13.7941 7.21023C13.8245 7.24077 13.8531 7.27321 13.8795 7.30738L14.5241 6.80858C14.4768 6.74748 14.4258 6.68947 14.3713 6.63486L13.7941 7.21023ZM14.3181 7.25567L14.3327 7.24439L13.8328 6.6007L13.8182 6.61197L14.3181 7.25567Z" fill="#10E0D7"/>
</svg>
