<svg width="54" height="36" viewBox="0 0 54 36" fill="none" xmlns="http://www.w3.org/2000/svg">
<path d="M10.4335 7.85839C10.001 8.20189 9.9289 8.83093 10.2724 9.2634C10.6159 9.69587 11.2449 9.768 11.6774 9.4245L10.4335 7.85839ZM14.8629 6.89438C15.2954 6.55089 15.3675 5.92185 15.024 5.48938C14.6805 5.05691 14.0515 4.98478 13.619 5.32827L14.8629 6.89438ZM33.3691 9.4245C33.8016 9.768 34.4306 9.69587 34.7741 9.2634C35.1176 8.83093 35.0455 8.20189 34.613 7.85839L33.3691 9.4245ZM31.4275 5.32827C30.9951 4.98478 30.366 5.05691 30.0225 5.48938C29.679 5.92185 29.7512 6.55089 30.1836 6.89438L31.4275 5.32827ZM33.5254 15.6307C33.7202 16.1475 34.297 16.4085 34.8138 16.2137C35.3306 16.019 35.5917 15.4421 35.3969 14.9253L33.5254 15.6307ZM10.6696 26.6207C10.9509 27.096 11.5643 27.2532 12.0395 26.9719C12.5148 26.6905 12.672 26.0772 12.3907 25.6019L10.6696 26.6207ZM23.5233 12.778C23.5233 12.2257 23.0755 11.778 22.5233 11.778C21.971 11.778 21.5233 12.2257 21.5233 12.778H23.5233ZM21.5233 13.6113C21.5233 14.1636 21.971 14.6113 22.5233 14.6113C23.0755 14.6113 23.5233 14.1636 23.5233 13.6113H21.5233ZM16.9539 18.7024C17.4645 18.9131 18.0491 18.67 18.2598 18.1595C18.4705 17.649 18.2275 17.0643 17.7169 16.8536L16.9539 18.7024ZM16.703 16.4352C16.1925 16.2245 15.6078 16.4675 15.3972 16.978C15.1865 17.4886 15.4295 18.0732 15.94 18.2839L16.703 16.4352ZM27.6428 16.9271C27.1728 17.2173 27.0271 17.8335 27.3173 18.3034C27.6075 18.7733 28.2236 18.919 28.6935 18.6289L27.6428 16.9271ZM30.0231 17.8079C30.493 17.5177 30.6388 16.9015 30.3486 16.4316C30.0584 15.9617 29.4423 15.816 28.9723 16.1061L30.0231 17.8079ZM10.7813 19.7107C10.7813 13.2831 16.0315 8.06012 22.5233 8.06012V6.06012C14.9406 6.06012 8.78125 12.1649 8.78125 19.7107H10.7813ZM11.6774 9.4245L14.8629 6.89438L13.619 5.32827L10.4335 7.85839L11.6774 9.4245ZM34.613 7.85839L31.4275 5.32827L30.1836 6.89438L33.3691 9.4245L34.613 7.85839ZM22.5233 8.06012C27.5635 8.06012 31.8595 11.2104 33.5254 15.6307L35.3969 14.9253C33.4445 9.74482 28.4158 6.06012 22.5233 6.06012V8.06012ZM12.3907 25.6019C11.3678 23.874 10.7813 21.8617 10.7813 19.7107H8.78125C8.78125 22.2305 9.46949 24.5934 10.6696 26.6207L12.3907 25.6019ZM21.5233 12.778V13.6113H23.5233V12.778H21.5233ZM17.7169 16.8536L16.703 16.4352L15.94 18.2839L16.9539 18.7024L17.7169 16.8536ZM28.6935 18.6289L30.0231 17.8079L28.9723 16.1061L27.6428 16.9271L28.6935 18.6289Z" fill="#10E0D7"/>
<path d="M40.0019 19.4473L32.0837 28.8552C28.946 32.5833 27.3772 34.4473 25.3132 34.4473C23.2493 34.4473 21.6804 32.5832 18.5427 28.8552L16.5 26.4282" stroke="#10E0D7" stroke-width="2" stroke-linecap="round"/>
</svg>
