<svg width="24" height="24" viewBox="0 0 24 24" fill="none" xmlns="http://www.w3.org/2000/svg">
<path d="M7.57681 5.1784L8.96069 5.87024C9.16951 5.97464 9.41307 5.98447 9.62962 5.89725L12.0021 4.94168M7.57681 5.1784L6.62651 4.07805C6.55795 3.99866 6.58113 3.87612 6.67395 3.82727L7.15203 3.57564C7.41417 3.43768 7.73053 3.45281 7.97831 3.61516L9.28908 4.47406M7.57681 5.1784L9.28908 4.47406M9.28908 4.47406L13.7127 2.65438C14.9323 2.15272 16.305 2.17768 17.5055 2.72335V2.72335C17.5063 2.72369 17.5062 2.72479 17.5055 2.7251L13.9193 4.1695M12.0021 4.94168L11.4348 6.81747C11.3965 6.94403 11.5169 7.06111 11.6423 7.01929L12.6819 6.67277C12.9181 6.59404 13.1053 6.4117 13.1903 6.17769L13.9193 4.1695M12.0021 4.94168L13.9193 4.1695" stroke="#10E0D7" stroke-width="0.815006" stroke-linecap="round" stroke-linejoin="round"/>
<path d="M5.94231 19.0991V22.6511H4.9058H6.93689M5.94231 19.0991H10.9232M5.94231 19.0991H4.9058M17.8976 19.0991V22.6511H16.4768H19.2474M17.8976 19.0991H19.0096M17.8976 19.0991H13.1379M19.0096 19.0991H20.4114C20.8615 19.0991 21.2264 18.7342 21.2264 18.2841V16.9304C21.2264 16.4803 21.5913 16.1154 22.0414 16.1154H22.2311M19.0096 19.0991V11.9722C19.0096 11.5221 18.6447 11.1572 18.1946 11.1572H13.9529C13.5028 11.1572 13.1379 11.5221 13.1379 11.9722V16.9045V19.0991M13.1379 19.0991H10.9122H12.9834H10.9232M10.9232 19.0991V16.9045L10.9137 11.9709C10.9129 11.5213 10.5482 11.1574 10.0987 11.1574H5.71092C5.26037 11.1574 4.89529 11.523 4.89592 11.9735L4.9058 19.0991M4.9058 19.0991H3.36505C2.91493 19.0991 2.55004 18.7342 2.55004 18.2841V16.8965C2.55004 16.4651 2.20032 16.1154 1.76892 16.1154V16.1154" stroke="#10E0D7" stroke-width="0.815006" stroke-linecap="round" stroke-linejoin="round"/>
</svg>
