<svg width="28" height="28" viewBox="0 0 28 28" fill="none" xmlns="http://www.w3.org/2000/svg">
<path d="M15.1667 16.1663C15.719 16.1663 16.1667 15.7186 16.1667 15.1663C16.1667 14.6141 15.719 14.1663 15.1667 14.1663V16.1663ZM15.1667 25.4997C15.719 25.4997 16.1667 25.052 16.1667 24.4997C16.1667 23.9474 15.719 23.4997 15.1667 23.4997V25.4997ZM26.4117 15.8334C26.7801 15.4219 26.7452 14.7897 26.3337 14.4213C25.9222 14.0529 25.29 14.0878 24.9216 14.4993L26.4117 15.8334ZM21.736 19.5567L20.9909 18.8897L21.736 19.5567ZM15.014 19.5567L15.7591 18.8897H15.7591L15.014 19.5567ZM14.745 17.7571C14.3766 17.3456 13.7444 17.3107 13.333 17.6791C12.9215 18.0475 12.8866 18.6797 13.255 19.0911L14.745 17.7571ZM15.3333 6.99967C15.3333 9.02472 13.6917 10.6663 11.6667 10.6663V12.6663C14.7963 12.6663 17.3333 10.1293 17.3333 6.99967L15.3333 6.99967ZM11.6667 10.6663C9.64162 10.6663 8 9.02472 8 6.99967L6 6.99967C6 10.1293 8.53705 12.6663 11.6667 12.6663V10.6663ZM8 6.99967C8 4.97463 9.64162 3.33301 11.6667 3.33301V1.33301C8.53705 1.33301 6 3.87006 6 6.99967L8 6.99967ZM11.6667 3.33301C13.6917 3.33301 15.3333 4.97463 15.3333 6.99967L17.3333 6.99967C17.3333 3.87006 14.7963 1.33301 11.6667 1.33301V3.33301ZM8.16667 16.1663H15.1667V14.1663L8.16667 14.1663L8.16667 16.1663ZM15.1667 23.4997L8.16667 23.4997V25.4997L15.1667 25.4997V23.4997ZM8.16667 23.4997C6.14162 23.4997 4.5 21.8581 4.5 19.833H2.5C2.5 22.9626 5.03705 25.4997 8.16667 25.4997V23.4997ZM8.16667 14.1663C5.03705 14.1663 2.5 16.7034 2.5 19.833H4.5C4.5 17.808 6.14162 16.1663 8.16667 16.1663L8.16667 14.1663ZM24.9216 14.4993L20.9909 18.8897L22.481 20.2237L26.4117 15.8334L24.9216 14.4993ZM15.7591 18.8897L14.745 17.7571L13.255 19.0911L14.269 20.2237L15.7591 18.8897ZM20.9909 18.8897C20.1919 19.7821 19.6624 20.37 19.2122 20.7484C18.7868 21.1059 18.558 21.1663 18.375 21.1663V23.1663C19.2166 23.1663 19.8894 22.7918 20.499 22.2794C21.0838 21.788 21.7224 21.071 22.481 20.2237L20.9909 18.8897ZM14.269 20.2237C15.0276 21.071 15.6662 21.788 16.251 22.2794C16.8606 22.7918 17.5334 23.1663 18.375 23.1663V21.1663C18.192 21.1663 17.9632 21.1059 17.5378 20.7484C17.0876 20.37 16.5581 19.7821 15.7591 18.8897L14.269 20.2237Z" fill="#10E0D7"/>
</svg>
