<svg width="24" height="24" viewBox="0 0 24 24" fill="none" xmlns="http://www.w3.org/2000/svg">
<path d="M6.00012 20.0872H8.61041C8.95075 20.0872 9.28901 20.1277 9.61893 20.2086L12.377 20.8789C12.9755 21.0247 13.5989 21.0388 14.2036 20.9214L17.2531 20.3281C18.0587 20.1712 18.7997 19.7854 19.3805 19.2205L21.538 17.1217C22.1542 16.5234 22.1542 15.5524 21.538 14.9531C20.9833 14.4134 20.1048 14.3527 19.4773 14.8103L16.9627 16.6449C16.6026 16.9081 16.1644 17.0498 15.7138 17.0498H13.2856L14.8312 17.0498C15.7023 17.0498 16.408 16.3633 16.408 15.5159V15.2091C16.408 14.5055 15.9157 13.892 15.2142 13.7219L12.8287 13.1417C12.4405 13.0476 12.0429 13 11.6433 13C10.6785 13 8.93202 13.7988 8.93202 13.7988L6.00012 15.0249M2.00012 14.6L2.00012 20.4C2.00012 20.9601 2.00012 21.2401 2.10912 21.454C2.20499 21.6422 2.35797 21.7951 2.54613 21.891C2.76004 22 3.04007 22 3.60012 22H4.40012C4.96017 22 5.2402 22 5.45411 21.891C5.64227 21.7951 5.79526 21.6422 5.89113 21.454C6.00012 21.2401 6.00012 20.9601 6.00012 20.4V14.6C6.00012 14.0399 6.00012 13.7599 5.89113 13.546C5.79526 13.3578 5.64227 13.2049 5.45411 13.109C5.2402 13 4.96017 13 4.40012 13L3.60012 13C3.04007 13 2.76004 13 2.54613 13.109C2.35797 13.2049 2.20499 13.3578 2.10912 13.546C2.00012 13.7599 2.00012 14.0399 2.00012 14.6Z" stroke="#10E0D7" stroke-width="0.815006" stroke-linecap="round" stroke-linejoin="round"/>
<path d="M19.8678 9.19509H3.74023M5.3545 9.19502V9.19502C5.3545 6.00899 7.93729 3.42621 11.1233 3.42621H12.3821C15.5681 3.42621 18.1509 6.00899 18.1509 9.19502V9.19502M10.5391 3.42625V3.18871C10.5391 2.53277 11.0708 2.00102 11.7268 2.00102V2.00102C12.3827 2.00102 12.9145 2.53277 12.9145 3.18871V3.42625" stroke="#10E0D7" stroke-width="0.815006" stroke-linecap="round" stroke-linejoin="round"/>
</svg>
