<svg width="40" height="40" viewBox="0 0 40 40" fill="none" xmlns="http://www.w3.org/2000/svg">
<path d="M21 9.22743C21 8.67514 20.5523 8.22743 20 8.22743C19.4477 8.22743 19 8.67514 19 9.22743H21ZM4.37528 4.63547C3.94402 4.98048 3.8741 5.60977 4.21911 6.04104C4.56412 6.4723 5.19341 6.54222 5.62467 6.19721L4.37528 4.63547ZM9.79134 2.86388C10.2226 2.51887 10.2925 1.88957 9.94752 1.45831C9.60251 1.02705 8.97321 0.957129 8.54195 1.30214L9.79134 2.86388ZM34.3753 6.19721C34.8065 6.54222 35.4358 6.4723 35.7808 6.04104C36.1259 5.60977 36.0559 4.98048 35.6247 4.63547L34.3753 6.19721ZM31.458 1.30214C31.0267 0.957129 30.3975 1.02705 30.0524 1.45831C29.7074 1.88957 29.7774 2.51887 30.2086 2.86388L31.458 1.30214ZM4.76896 28.9563C5.04934 29.4321 5.66236 29.5906 6.13819 29.3102C6.61401 29.0298 6.77245 28.4168 6.49207 27.941L4.76896 28.9563ZM29.4833 7.52813C29.9226 7.86277 30.5501 7.77787 30.8847 7.33851C31.2194 6.89915 31.1345 6.2717 30.6951 5.93706L29.4833 7.52813ZM19 9.94117C19 10.4935 19.4477 10.9412 20 10.9412C20.5523 10.9412 21 10.4935 21 9.94117H19ZM4.33331 19.9997C4.33331 11.3472 11.3475 4.33301 20 4.33301V2.33301C10.2429 2.33301 2.33331 10.2426 2.33331 19.9997H4.33331ZM5.62467 6.19721L9.79134 2.86388L8.54195 1.30214L4.37528 4.63547L5.62467 6.19721ZM35.6247 4.63547L31.458 1.30214L30.2086 2.86388L34.3753 6.19721L35.6247 4.63547ZM6.49207 27.941C5.12043 25.6132 4.33331 22.8999 4.33331 19.9997H2.33331C2.33331 23.2666 3.221 26.3293 4.76896 28.9563L6.49207 27.941ZM20 4.33301C23.5657 4.33301 26.8507 5.52305 29.4833 7.52813L30.6951 5.93706C27.7264 3.67596 24.0186 2.33301 20 2.33301V4.33301ZM19 9.22743V9.94117H21V9.22743H19Z" fill="#10E0D7"/>
<path d="M32.3654 13.344C33.6036 12.0652 35.6493 12.0487 36.9079 13.3073C38.1321 14.5315 38.1548 16.5091 36.9592 17.7611L33.3932 21.4954C33.1137 21.7881 32.974 21.9344 32.8878 22.1058C32.8116 22.2576 32.7662 22.4229 32.7544 22.5923C32.741 22.7837 32.7865 22.9808 32.8775 23.3752L35.095 32.9843C35.1884 33.3891 35.2351 33.5915 35.22 33.7873C35.2067 33.9606 35.1583 34.1293 35.0777 34.2834C34.9868 34.4574 34.8399 34.6043 34.5461 34.898L34.0703 35.3738C33.2924 36.1517 32.9035 36.5407 32.5054 36.6111C32.1578 36.6726 31.8002 36.5882 31.5168 36.3777C31.1922 36.1367 31.0182 35.6149 30.6704 34.5712L28.0911 26.8335L23.7979 31.1268C23.5416 31.383 23.4135 31.5112 23.3278 31.6621C23.2519 31.7957 23.2006 31.942 23.1764 32.0938C23.149 32.2652 23.169 32.4453 23.2091 32.8055L23.4448 34.9273C23.4848 35.2875 23.5049 35.4676 23.4775 35.639C23.4533 35.7908 23.402 35.9371 23.3261 36.0707C23.2404 36.2216 23.1122 36.3498 22.856 36.606L22.6025 36.8595C21.9954 37.4666 21.6918 37.7702 21.3545 37.8581C21.0586 37.9352 20.745 37.9041 20.47 37.7705C20.1564 37.6181 19.9183 37.2609 19.4421 36.5466L17.4293 33.5275C17.3443 33.3999 17.3017 33.3361 17.2523 33.2782C17.2084 33.2268 17.1606 33.1789 17.1092 33.135C17.0513 33.0856 16.9875 33.0431 16.8598 32.958L13.8408 30.9453C13.1264 30.469 12.7692 30.2309 12.6169 29.9174C12.4832 29.6424 12.4522 29.3287 12.5293 29.0328C12.6172 28.6955 12.9207 28.3919 13.5278 27.7848L13.7813 27.5314C14.0376 27.2751 14.1657 27.147 14.3166 27.0613C14.4503 26.9853 14.5965 26.934 14.7483 26.9098C14.9197 26.8825 15.0998 26.9025 15.46 26.9425L17.5819 27.1783C17.9421 27.2183 18.1222 27.2383 18.2936 27.211C18.4454 27.1868 18.5916 27.1355 18.7253 27.0595C18.8762 26.9738 19.0043 26.8457 19.2606 26.5894L23.5538 22.2962L15.8161 19.717C14.7725 19.3691 14.2506 19.1952 14.0096 18.8706C13.7992 18.5872 13.7148 18.2296 13.7763 17.882C13.8467 17.4839 14.2356 17.0949 15.0135 16.317L15.4893 15.8412C15.7831 15.5475 15.93 15.4006 16.104 15.3096C16.258 15.2291 16.4268 15.1807 16.6 15.1673C16.7958 15.1523 16.9982 15.199 17.403 15.2924L26.9757 17.5015C27.3735 17.5933 27.5724 17.6392 27.7644 17.6255C27.9498 17.6123 28.1301 17.559 28.2929 17.4693C28.4615 17.3764 28.6035 17.2297 28.8874 16.9364L32.3654 13.344Z" stroke="#10E0D7" stroke-width="2" stroke-linecap="round" stroke-linejoin="round"/>
</svg>
