<svg width="53" height="36" viewBox="0 0 53 36" fill="none" xmlns="http://www.w3.org/2000/svg">
<g clip-path="url(#clip0_2129_59527)">
<path d="M20 7.9502H34C35.2114 7.9502 36.125 8.86384 36.125 10.0752V34.5752C36.125 34.7241 36.0776 34.8093 36.0308 34.856C35.9841 34.9028 35.8989 34.9502 35.75 34.9502H33.125C32.9761 34.9502 32.8909 34.9028 32.8442 34.856C32.7974 34.8093 32.75 34.7241 32.75 34.5752V15.3252C32.75 14.9491 32.6224 14.5968 32.3629 14.3373C32.1034 14.0778 31.7511 13.9502 31.375 13.9502H22.625C22.2489 13.9502 21.8966 14.0778 21.6371 14.3373C21.3776 14.5968 21.25 14.9491 21.25 15.3252V34.5752C21.25 34.7241 21.2026 34.8093 21.1558 34.856C21.1091 34.9028 21.0239 34.9502 20.875 34.9502H18.25C18.1011 34.9502 18.0159 34.9028 17.9692 34.856C17.9224 34.8093 17.875 34.7241 17.875 34.5752V10.0752C17.875 8.86384 18.7886 7.9502 20 7.9502ZM24.375 12.3252C24.5646 12.3252 24.7449 12.293 24.9171 12.2165C25.0872 12.1409 25.224 12.0333 25.3411 11.9162C25.4581 11.7992 25.5657 11.6623 25.6413 11.4923C25.659 11.4524 25.6744 11.4121 25.6875 11.3713C25.7006 11.4121 25.716 11.4524 25.7337 11.4923C25.8093 11.6623 25.9169 11.7992 26.0339 11.9162C26.151 12.0333 26.2878 12.1409 26.4579 12.2165C26.6301 12.293 26.8104 12.3252 27 12.3252C27.1896 12.3252 27.3699 12.293 27.5421 12.2165C27.7122 12.1409 27.849 12.0333 27.9661 11.9162C28.0831 11.7992 28.1907 11.6623 28.2663 11.4923C28.284 11.4524 28.2994 11.4121 28.3125 11.3713C28.3256 11.4121 28.341 11.4524 28.3587 11.4923C28.4343 11.6623 28.5419 11.7992 28.6589 11.9162C28.776 12.0333 28.9128 12.1409 29.0829 12.2165C29.2551 12.293 29.4354 12.3252 29.625 12.3252C29.8146 12.3252 29.9949 12.293 30.1671 12.2165C30.3372 12.1409 30.474 12.0333 30.5911 11.9162C30.7081 11.7992 30.8157 11.6623 30.8913 11.4923C30.9678 11.3201 31 11.1398 31 10.9502C31 10.7606 30.9678 10.5803 30.8913 10.4081C30.8157 10.238 30.7081 10.1012 30.5911 9.98414C30.0458 9.43888 29.2042 9.43888 28.6589 9.98414C28.5419 10.1012 28.4343 10.238 28.3587 10.4081C28.341 10.448 28.3256 10.4883 28.3125 10.5291C28.2994 10.4883 28.284 10.448 28.2663 10.4081C28.1907 10.238 28.0831 10.1012 27.9661 9.98414C27.4208 9.43888 26.5792 9.43888 26.0339 9.98414C25.9169 10.1012 25.8093 10.238 25.7337 10.4081C25.716 10.448 25.7006 10.4883 25.6875 10.5291C25.6744 10.4883 25.659 10.448 25.6413 10.4081C25.5657 10.238 25.4581 10.1012 25.3411 9.98414C24.7958 9.43888 23.9542 9.43888 23.4089 9.98414C23.2919 10.1012 23.1843 10.238 23.1087 10.4081C23.0322 10.5803 23 10.7606 23 10.9502C23 11.1398 23.0322 11.3201 23.1087 11.4923C23.1843 11.6623 23.2919 11.7992 23.4089 11.9162C23.526 12.0333 23.6628 12.1409 23.8329 12.2165C24.0051 12.293 24.1854 12.3252 24.375 12.3252Z" fill="#10E0D7" stroke="#050C0C"/>
<path d="M40.125 20.5752H38.375C37.85 20.5752 37.5 20.9252 37.5 21.4502C37.5 21.9752 37.85 22.3252 38.375 22.3252H40.125C40.65 22.3252 41 21.9752 41 21.4502C41 20.9252 40.65 20.5752 40.125 20.5752Z" fill="#10E0D7"/>
<path d="M37.6749 20.2249C37.8499 20.2249 38.0249 20.1374 38.1999 20.0499L39.5999 18.9999C39.9499 18.7374 40.0374 18.1249 39.7749 17.7749C39.5124 17.4249 38.9874 17.3374 38.5499 17.5999L37.1499 18.6499C36.7999 18.9124 36.7124 19.5249 36.9749 19.8749C37.1499 20.1374 37.4124 20.2249 37.6749 20.2249Z" fill="#10E0D7"/>
<path d="M38.1999 22.763C37.8499 22.5005 37.2374 22.588 36.9749 22.938C36.7124 23.288 36.7999 23.9005 37.1499 24.163L38.5499 25.213C38.7249 25.3005 38.8999 25.388 39.0749 25.388C39.3374 25.388 39.5999 25.3005 39.7749 25.038C40.0374 24.688 39.9499 24.0755 39.5999 23.813L38.1999 22.763Z" fill="#10E0D7"/>
<path d="M16.5 21.4502C16.5 20.9252 16.15 20.5752 15.625 20.5752H13.875C13.35 20.5752 13 20.9252 13 21.4502C13 21.9752 13.35 22.3252 13.875 22.3252H15.625C16.15 22.3252 16.5 21.9752 16.5 21.4502Z" fill="#10E0D7"/>
<path d="M15.45 17.6878C15.1 17.4253 14.4875 17.5128 14.225 17.8628C13.9625 18.2128 14.05 18.8253 14.4 19.0878L15.8 20.1378C15.975 20.2253 16.15 20.3128 16.325 20.3128C16.5875 20.3128 16.85 20.2253 17.025 19.9628C17.2875 19.6128 17.2 19.0003 16.85 18.7378L15.45 17.6878Z" fill="#10E0D7"/>
<path d="M15.7999 22.763L14.3999 23.813C14.0499 24.0755 13.9624 24.688 14.2249 25.038C14.3999 25.3005 14.6624 25.388 14.9249 25.388C15.0999 25.388 15.2749 25.3005 15.4499 25.213L16.8499 24.163C17.1999 23.9005 17.2874 23.288 17.0249 22.938C16.7624 22.588 16.2374 22.5005 15.7999 22.763Z" fill="#10E0D7"/>
<path d="M30.5665 21.9383L30.5665 21.9384L30.5769 21.9405C30.7634 21.9778 30.875 22.1079 30.875 22.3252V28.4502C30.875 28.5991 30.8276 28.6843 30.7808 28.731C30.7341 28.7778 30.6489 28.8252 30.5 28.8252H29.625H29.125V29.3252V34.5752C29.125 34.7241 29.0776 34.8093 29.0308 34.856C28.9841 34.9028 28.8989 34.9502 28.75 34.9502H25.25C25.1011 34.9502 25.0159 34.9028 24.9692 34.856C24.9224 34.8093 24.875 34.7241 24.875 34.5752V29.3252V28.8252H24.375H23.5C23.3511 28.8252 23.2659 28.7778 23.2192 28.731C23.1724 28.6843 23.125 28.5991 23.125 28.4502V22.3252C23.125 22.2438 23.1573 22.159 23.2234 22.0818C23.2906 22.0034 23.3751 21.9544 23.4415 21.9365C24.1957 21.7695 24.9539 21.6848 25.7427 21.5971L26.5499 21.5075L26.3829 21.6002H28.3125C29.0356 21.6002 29.7688 21.761 30.5665 21.9383ZM28.0697 20.6631L27 21.2574L25.9303 20.6631C25.3041 20.3152 24.875 19.609 24.875 18.8252C24.875 17.6138 25.7886 16.7002 27 16.7002C28.2114 16.7002 29.125 17.6138 29.125 18.8252C29.125 19.609 28.6959 20.3152 28.0697 20.6631Z" fill="#10E0D7" stroke="#050C0C"/>
</g>
<defs>
<clipPath id="clip0_2129_59527">
<rect width="28" height="28" fill="white" transform="translate(13 7.4502)"/>
</clipPath>
</defs>
</svg>
