<svg width="24" height="24" viewBox="0 0 24 24" fill="none" xmlns="http://www.w3.org/2000/svg">
<path d="M16 9H8.00003M8.00003 6.08268V6C8.00003 3.79086 9.79089 2 12 2C14.2092 2 16 3.79086 16 6V6.08268M8.00003 6.08268C8.78675 6 9.78926 6 11.1879 6H12.8121C14.2108 6 15.2133 6 16 6.08268M8.00003 6.08268C7.39798 6.14596 6.92231 6.25766 6.49219 6.45483C5.6179 6.85563 4.87775 7.50008 4.36049 8.31092C3.77349 9.23109 3.60366 10.4539 3.264 12.8995C2.82783 16.0399 2.60974 17.6101 3.08927 18.8297C3.51024 19.9003 4.28753 20.793 5.29007 21.3573C6.43204 22 8.01734 22 11.1879 22H12.8121C15.9827 22 17.568 22 18.71 21.3573C19.7125 20.793 20.4898 19.9003 20.9108 18.8297C21.3903 17.6101 21.1722 16.0399 20.7361 12.8995C20.3964 10.4539 20.2266 9.23109 19.6396 8.31092C19.1223 7.50008 18.3822 6.85563 17.5079 6.45483C17.0778 6.25766 16.6021 6.14596 16 6.08268" stroke="#10E0D7" stroke-width="0.815006" stroke-linecap="round"/>
</svg>
