<svg width="40" height="40" viewBox="0 0 40 40" fill="none" xmlns="http://www.w3.org/2000/svg">
<path d="M3.21285 27.4609H2.21285H3.21285ZM4.21285 25.5957C4.21285 25.0434 3.76514 24.5957 3.21285 24.5957C2.66057 24.5957 2.21285 25.0434 2.21285 25.5957H4.21285ZM14.4043 37.7871C14.9565 37.7871 15.4043 37.3394 15.4043 36.7871C15.4043 36.2348 14.9565 35.7871 14.4043 35.7871V37.7871ZM12.539 36.7871V35.7871V36.7871ZM14.4043 4.21289C14.9565 4.21289 15.4043 3.76518 15.4043 3.21289C15.4043 2.66061 14.9565 2.21289 14.4043 2.21289V4.21289ZM2.21285 14.4043C2.21285 14.9566 2.66057 15.4043 3.21285 15.4043C3.76514 15.4043 4.21285 14.9566 4.21285 14.4043H2.21285ZM36.7871 12.5391H35.7871H36.7871ZM35.7871 14.4043C35.7871 14.9566 36.2348 15.4043 36.7871 15.4043C37.3394 15.4043 37.7871 14.9566 37.7871 14.4043H35.7871ZM25.5957 2.21289C25.0434 2.21289 24.5957 2.66061 24.5957 3.21289C24.5957 3.76518 25.0434 4.21289 25.5957 4.21289V2.21289ZM27.4609 3.21289V2.21289V3.21289ZM27.4609 36.7871L27.4609 35.7871L27.4609 36.7871ZM25.5957 35.7871C25.0434 35.7871 24.5957 36.2348 24.5957 36.7871C24.5957 37.3394 25.0434 37.7871 25.5957 37.7871L25.5957 35.7871ZM37.7871 25.5957C37.7871 25.0434 37.3394 24.5957 36.7871 24.5957C36.2348 24.5957 35.7871 25.0434 35.7871 25.5957L37.7871 25.5957ZM36.7871 27.4609H37.7871H36.7871ZM4.21285 27.4609L4.21285 25.5957H2.21285L2.21285 27.4609H4.21285ZM14.4043 35.7871H12.539V37.7871H14.4043V35.7871ZM2.21285 27.4609C2.21285 33.1639 6.83604 37.7871 12.539 37.7871V35.7871C7.94061 35.7871 4.21285 32.0594 4.21285 27.4609H2.21285ZM12.539 4.21289H14.4043V2.21289H12.539V4.21289ZM4.21285 14.4043V12.5391H2.21285V14.4043H4.21285ZM12.539 2.21289C6.83604 2.21289 2.21285 6.83608 2.21285 12.5391H4.21285C4.21285 7.94065 7.94061 4.21289 12.539 4.21289V2.21289ZM35.7871 12.5391V14.4043H37.7871V12.5391H35.7871ZM25.5957 4.21289L27.4609 4.21289V2.21289L25.5957 2.21289V4.21289ZM37.7871 12.5391C37.7871 6.83608 33.1639 2.21289 27.4609 2.21289V4.21289C32.0593 4.21289 35.7871 7.94065 35.7871 12.5391H37.7871ZM27.4609 35.7871H25.5957L25.5957 37.7871H27.4609L27.4609 35.7871ZM35.7871 25.5957V27.4609L37.7871 27.4609V25.5957L35.7871 25.5957ZM27.4609 37.7871C33.1639 37.7871 37.7871 33.1639 37.7871 27.4609L35.7871 27.4609C35.7871 32.0594 32.0593 35.7871 27.4609 35.7871L27.4609 37.7871Z" fill="#10E0D7"/>
<path d="M9.43193 14.076L9.43193 25.3357C9.43193 25.6985 9.62841 26.0329 9.94535 26.2094L20.0676 31.8471M9.43193 14.076L20.0676 19.8651M9.43193 14.076L19.0882 8.69783C19.6966 8.35897 20.4375 8.36099 21.044 8.70314L30.5687 14.076M20.0676 31.8471L20.0676 19.8651M20.0676 31.8471L30.06 26.2104C30.3743 26.0331 30.5687 25.7002 30.5687 25.3394L30.5687 14.076M20.0676 19.8651L30.5687 14.076" stroke="#10E0D7" stroke-width="2" stroke-linejoin="round"/>
</svg>
