<svg width="122" height="40" viewBox="0 0 122 40" fill="none" xmlns="http://www.w3.org/2000/svg">
<path d="M13.5728 7.82571H14.2491V11.5289H13.9754C12.7517 11.5289 11.6622 11.7113 10.7069 12.0763C9.75163 12.4412 8.94123 12.9618 8.27573 13.638C7.62097 14.3035 7.11649 15.1086 6.76227 16.0531C6.41879 16.9977 6.24705 18.055 6.24705 19.225V23.1213C6.24705 23.9586 6.32755 24.6992 6.48856 25.3432C6.6603 25.9765 6.90181 26.5078 7.21309 26.9372C7.5351 27.3558 7.91079 27.6724 8.34014 27.8871C8.76949 28.0911 9.25251 28.193 9.78919 28.193C10.2937 28.193 10.7499 28.0857 11.1577 27.871C11.5764 27.6563 11.9306 27.3558 12.2204 26.9694C12.5209 26.5722 12.7463 26.1107 12.8966 25.5847C13.0576 25.048 13.1381 24.463 13.1381 23.8298C13.1381 23.1965 13.0576 22.6115 12.8966 22.0748C12.7463 21.5381 12.5209 21.0765 12.2204 20.6901C11.9198 20.293 11.5549 19.9871 11.1255 19.7724C10.6962 19.5577 10.2132 19.4504 9.67649 19.4504C8.94659 19.4504 8.30257 19.6221 7.74441 19.9656C7.19699 20.2983 6.76764 20.7277 6.45636 21.2537C6.14508 21.7796 5.97871 22.3324 5.95724 22.912L4.55648 22.0104C4.58868 21.1839 4.76043 20.4003 5.0717 19.6597C5.39372 18.9191 5.8338 18.2643 6.39196 17.6954C6.96085 17.1158 7.64244 16.665 8.43674 16.343C9.23104 16.0102 10.1273 15.8438 11.1255 15.8438C12.2204 15.8438 13.1811 16.0531 14.0076 16.4718C14.8448 16.8904 15.5425 17.4646 16.1006 18.1945C16.6588 18.9244 17.0774 19.767 17.3565 20.7223C17.6356 21.6776 17.7751 22.6973 17.7751 23.7815C17.7751 24.9192 17.5873 25.9765 17.2116 26.9533C16.8466 27.9301 16.3153 28.7834 15.6176 29.5133C14.9307 30.2432 14.1042 30.8121 13.1381 31.22C12.1721 31.6278 11.088 31.8318 9.8858 31.8318C8.64068 31.8318 7.50827 31.6064 6.48856 31.1556C5.47959 30.694 4.61015 30.05 3.88026 29.2235C3.15036 28.397 2.58684 27.4148 2.18969 26.2771C1.80327 25.1393 1.61006 23.8942 1.61006 22.5417V20.7384C1.61006 18.8493 1.88378 17.1212 2.4312 15.554C2.98935 13.9762 3.78902 12.613 4.83019 11.4645C5.87137 10.3052 7.12722 9.40894 8.59775 8.77565C10.0683 8.14236 11.7266 7.82571 13.5728 7.82571ZM36.3231 17.7276V21.785C36.3231 23.5453 36.1352 25.0641 35.7595 26.3415C35.3839 27.608 34.8418 28.6492 34.1334 29.465C33.4357 30.27 32.6038 30.8657 31.6378 31.2522C30.6717 31.6386 29.5984 31.8318 28.4176 31.8318C27.4731 31.8318 26.5929 31.7137 25.7771 31.4776C24.9614 31.2307 24.2261 30.8496 23.5713 30.3344C22.9273 29.8192 22.3692 29.1698 21.8969 28.3862C21.4353 27.5919 21.0811 26.6474 20.8342 25.5525C20.5874 24.4577 20.4639 23.2018 20.4639 21.785V17.7276C20.4639 15.9673 20.6518 14.4592 21.0274 13.2033C21.4139 11.9367 21.9559 10.9009 22.6536 10.0959C23.362 9.29087 24.1993 8.70051 25.1653 8.32483C26.1314 7.93842 27.2047 7.74521 28.3854 7.74521C29.33 7.74521 30.2048 7.86865 31.0098 8.11552C31.8256 8.35167 32.5609 8.72198 33.2156 9.22647C33.8704 9.73095 34.4286 10.3803 34.8901 11.1746C35.3517 11.9582 35.7059 12.8974 35.9527 13.9923C36.1996 15.0764 36.3231 16.3215 36.3231 17.7276ZM31.67 22.3968V17.0997C31.67 16.2517 31.6217 15.5111 31.5251 14.8778C31.4392 14.2445 31.305 13.7078 31.1226 13.2677C30.9401 12.8169 30.7147 12.452 30.4463 12.1729C30.178 11.8938 29.8721 11.6899 29.5286 11.5611C29.1851 11.4323 28.8041 11.3679 28.3854 11.3679C27.8595 11.3679 27.3926 11.4698 26.9847 11.6738C26.5875 11.8777 26.2494 12.2051 25.9703 12.6559C25.6913 13.096 25.4766 13.6863 25.3263 14.427C25.1868 15.1569 25.117 16.0478 25.117 17.0997V22.3968C25.117 23.2448 25.1599 23.9908 25.2458 24.6348C25.3424 25.2788 25.482 25.8316 25.6644 26.2932C25.8576 26.744 26.0831 27.1143 26.3407 27.4041C26.609 27.6832 26.9149 27.8871 27.2584 28.0159C27.6126 28.1447 27.999 28.2091 28.4176 28.2091C28.9329 28.2091 29.3891 28.1072 29.7862 27.9032C30.1941 27.6885 30.5376 27.3558 30.8166 26.905C31.1065 26.4434 31.3211 25.8423 31.4607 25.1017C31.6002 24.3611 31.67 23.4594 31.67 22.3968Z" fill="#10E0D7"/>
<path d="M45.2931 23.4044V31.5098H43.5542V21.3944H45.1996L45.2931 23.4044ZM44.9378 26.0688L44.1338 26.0407C44.1401 25.3489 44.2304 24.7101 44.4049 24.1242C44.5795 23.5322 44.8381 23.018 45.1809 22.5817C45.5237 22.1454 45.9506 21.8089 46.4617 21.572C46.9727 21.329 47.5648 21.2074 48.2379 21.2074C48.7116 21.2074 49.1479 21.276 49.5468 21.4131C49.9456 21.544 50.2916 21.7528 50.5845 22.0395C50.8774 22.3262 51.1049 22.6939 51.2669 23.1426C51.429 23.5914 51.51 24.1336 51.51 24.7693V31.5098H49.7805V24.8534C49.7805 24.3237 49.6901 23.8999 49.5094 23.582C49.3349 23.2642 49.0856 23.0336 48.7615 22.8902C48.4374 22.7406 48.0572 22.6658 47.6209 22.6658C47.1099 22.6658 46.6829 22.7562 46.3401 22.9369C45.9974 23.1177 45.7231 23.367 45.5174 23.6849C45.3118 24.0027 45.1622 24.3673 45.0687 24.7787C44.9815 25.1838 44.9378 25.6138 44.9378 26.0688ZM51.4913 25.1152L50.3321 25.4705C50.3383 24.9158 50.4287 24.3829 50.6032 23.8718C50.7839 23.3608 51.0426 22.9058 51.3791 22.5069C51.7219 22.108 52.1426 21.7933 52.6412 21.5627C53.1398 21.3258 53.7101 21.2074 54.352 21.2074C54.8943 21.2074 55.3742 21.2791 55.7917 21.4224C56.2156 21.5658 56.5708 21.7871 56.8575 22.0862C57.1504 22.3791 57.3717 22.7562 57.5213 23.2174C57.6708 23.6786 57.7456 24.2271 57.7456 24.8628V31.5098H56.0068V24.8441C56.0068 24.2769 55.9164 23.8375 55.7356 23.5259C55.5611 23.2081 55.3118 22.9868 54.9877 22.8622C54.6699 22.7313 54.2897 22.6658 53.8472 22.6658C53.467 22.6658 53.1305 22.7313 52.8375 22.8622C52.5446 22.993 52.2984 23.1738 52.099 23.4044C51.8995 23.6288 51.7468 23.8874 51.6409 24.1803C51.5412 24.4733 51.4913 24.7849 51.4913 25.1152ZM62.2424 21.3944V31.5098H60.5035V21.3944H62.2424ZM60.3726 18.7113C60.3726 18.4308 60.4568 18.194 60.6251 18.0008C60.7996 17.8076 61.0551 17.711 61.3917 17.711C61.722 17.711 61.9744 17.8076 62.1489 18.0008C62.3296 18.194 62.42 18.4308 62.42 18.7113C62.42 18.9793 62.3296 19.2099 62.1489 19.4031C61.9744 19.5901 61.722 19.6836 61.3917 19.6836C61.0551 19.6836 60.7996 19.5901 60.6251 19.4031C60.4568 19.2099 60.3726 18.9793 60.3726 18.7113ZM66.7485 23.554V31.5098H65.019V21.3944H66.655L66.7485 23.554ZM66.3371 26.0688L65.6173 26.0407C65.6235 25.3489 65.7264 24.7101 65.9258 24.1242C66.1252 23.5322 66.4057 23.018 66.7672 22.5817C67.1287 22.1454 67.5587 21.8089 68.0573 21.572C68.5622 21.329 69.12 21.2074 69.7307 21.2074C70.2293 21.2074 70.6781 21.276 71.077 21.4131C71.4758 21.544 71.8155 21.7559 72.096 22.0488C72.3827 22.3417 72.6008 22.7219 72.7504 23.1894C72.9 23.6506 72.9748 24.2146 72.9748 24.8815V31.5098H71.2359V24.8628C71.2359 24.333 71.158 23.9092 71.0022 23.5914C70.8464 23.2673 70.6189 23.0336 70.3197 22.8902C70.0206 22.7406 69.6528 22.6658 69.2166 22.6658C68.7865 22.6658 68.3939 22.7562 68.0386 22.9369C67.6896 23.1177 67.3873 23.367 67.1318 23.6849C66.8825 24.0027 66.6862 24.3673 66.5428 24.7787C66.4057 25.1838 66.3371 25.6138 66.3371 26.0688Z" fill="#10E0D7"/>
</svg>
