<svg width="20" height="19" viewBox="0 0 20 19" fill="none" xmlns="http://www.w3.org/2000/svg">
<path d="M5.57903 18.4384L5.51529 18.8409H5.51529L5.57903 18.4384ZM1.42276 14.2822L1.82525 14.2184L1.42276 14.2822ZM19.2996 14.2822L19.7021 14.3459L19.2996 14.2822ZM15.1434 18.4384L15.2071 18.8409L15.1434 18.4384ZM18.6874 8.25526C18.5522 8.07531 18.2968 8.03901 18.1168 8.17417C17.9369 8.30934 17.9006 8.56479 18.0357 8.74473L18.6874 8.25526ZM2.68667 8.74473C2.82183 8.56479 2.78553 8.30934 2.60558 8.17417C2.42563 8.03901 2.17018 8.07531 2.03501 8.25526L2.68667 8.74473ZM9.9537 14.5C9.9537 14.7251 10.1362 14.9075 10.3612 14.9075C10.5863 14.9075 10.7687 14.7251 10.7687 14.5H9.9537ZM6.0419 4.24682C5.90207 4.42317 5.93168 4.67948 6.10803 4.81931C6.28438 4.95914 6.54069 4.92953 6.68052 4.75318L6.0419 4.24682ZM7.75905 2.73703L7.43974 2.48385L7.75905 2.73703ZM12.9634 2.73703L13.2827 2.48385L12.9634 2.73703ZM14.0419 4.75318C14.1817 4.92953 14.438 4.95914 14.6144 4.81931C14.7907 4.67948 14.8203 4.42317 14.6805 4.24682L14.0419 4.75318ZM10.1105 0.51989L10.0464 0.117462L10.0464 0.117463L10.1105 0.51989ZM10.6119 0.51989L10.676 0.117463L10.676 0.117462L10.6119 0.51989ZM18.9537 11.5V12.5H19.7687V11.5H18.9537ZM13.3612 18.0925H7.36121V18.9075H13.3612V18.0925ZM1.76871 12.5V11.5H0.953703V12.5H1.76871ZM7.36121 18.0925C6.41663 18.0925 5.99178 18.0912 5.64278 18.036L5.51529 18.8409C5.94361 18.9088 6.44777 18.9075 7.36121 18.9075V18.0925ZM0.953703 12.5C0.953703 13.4134 0.952438 13.9176 1.02028 14.3459L1.82525 14.2184C1.76997 13.8694 1.76871 13.4446 1.76871 12.5H0.953703ZM5.64278 18.036C3.67769 17.7247 2.13649 16.1835 1.82525 14.2184L1.02028 14.3459C1.38675 16.6597 3.20146 18.4745 5.51529 18.8409L5.64278 18.036ZM18.9537 12.5C18.9537 13.4446 18.9524 13.8694 18.8972 14.2184L19.7021 14.3459C19.77 13.9176 19.7687 13.4134 19.7687 12.5H18.9537ZM13.3612 18.9075C14.2746 18.9075 14.7788 18.9088 15.2071 18.8409L15.0796 18.036C14.7306 18.0912 14.3058 18.0925 13.3612 18.0925V18.9075ZM18.8972 14.2184C18.5859 16.1835 17.0447 17.7247 15.0796 18.036L15.2071 18.8409C17.521 18.4745 19.3357 16.6597 19.7021 14.3459L18.8972 14.2184ZM19.7687 11.5C19.7687 10.2831 19.3663 9.15907 18.6874 8.25526L18.0357 8.74473C18.6122 9.51225 18.9537 10.4657 18.9537 11.5H19.7687ZM1.76871 11.5C1.76871 10.4657 2.11016 9.51225 2.68667 8.74473L2.03501 8.25526C1.35614 9.15907 0.953703 10.2831 0.953703 11.5H1.76871ZM10.7687 14.5V1.5H9.9537V14.5H10.7687ZM6.68052 4.75318L8.07836 2.99021L7.43974 2.48385L6.0419 4.24682L6.68052 4.75318ZM12.6441 2.99021L14.0419 4.75318L14.6805 4.24682L13.2827 2.48385L12.6441 2.99021ZM8.07836 2.99021C8.64193 2.27944 9.04336 1.77416 9.38678 1.42942C9.72838 1.08649 9.96185 0.956223 10.1747 0.922317L10.0464 0.117463C9.57988 0.191795 9.19499 0.467128 8.80937 0.854233C8.42557 1.23951 7.99094 1.78868 7.43974 2.48385L8.07836 2.99021ZM13.2827 2.48385C12.7315 1.78869 12.2968 1.23952 11.913 0.854234C11.5274 0.467128 11.1425 0.191796 10.676 0.117463L10.5478 0.922317C10.7606 0.956223 10.994 1.0865 11.3356 1.42942C11.6791 1.77416 12.0805 2.27944 12.6441 2.99021L13.2827 2.48385ZM10.1747 0.922317C10.2368 0.912423 10.299 0.907503 10.3612 0.907503V0.0924971C10.2559 0.0924971 10.1508 0.100836 10.0464 0.117462L10.1747 0.922317ZM10.3612 0.907503C10.4234 0.907503 10.4857 0.912423 10.5478 0.922317L10.676 0.117462C10.5716 0.100837 10.4665 0.0924971 10.3612 0.0924971V0.907503ZM10.7687 1.5V0.5H9.9537V1.5H10.7687Z" fill="#10E0D7"/>
</svg>
